<svg id="svg" version="1.1" xmlns="http://www.w3.org/2000/svg" xmlns:xlink="http://www.w3.org/1999/xlink" width="400" height="400" viewBox="0, 0, 400,400"><g id="svgg"><path id="path0" d="M152.900 34.210 C 152.405 34.739,152.000 35.448,152.000 35.786 C 152.000 36.124,151.820 36.400,151.600 36.400 C 151.380 36.400,151.200 36.760,151.200 37.200 C 151.200 37.640,151.020 38.000,150.800 38.000 C 150.580 38.000,150.400 38.360,150.400 38.800 C 150.400 39.240,150.220 39.600,150.000 39.600 C 149.780 39.600,149.600 39.960,149.600 40.400 C 149.600 40.840,149.420 41.200,149.200 41.200 C 148.980 41.200,148.800 41.560,148.800 42.000 C 148.800 42.440,148.665 42.801,148.500 42.801 C 148.335 42.802,147.750 43.792,147.200 45.000 C 146.650 46.208,146.065 47.198,145.900 47.199 C 145.735 47.199,145.600 47.560,145.600 48.000 C 145.600 48.440,145.420 48.800,145.200 48.800 C 144.980 48.800,144.800 49.160,144.800 49.600 C 144.800 50.040,144.620 50.400,144.400 50.400 C 144.180 50.400,144.000 50.760,144.000 51.200 C 144.000 51.640,143.809 52.000,143.576 52.000 C 143.343 52.000,143.250 52.157,143.368 52.348 C 143.487 52.540,143.227 53.108,142.792 53.610 C 142.356 54.112,142.000 54.855,142.000 55.261 C 142.000 55.668,141.820 56.000,141.600 56.000 C 141.380 56.000,141.200 56.360,141.200 56.800 C 141.200 57.240,141.054 57.600,140.875 57.600 C 140.696 57.600,140.302 58.230,140.000 59.000 C 139.698 59.770,139.304 60.400,139.125 60.400 C 138.946 60.400,138.800 60.760,138.800 61.200 C 138.800 61.640,138.620 62.000,138.400 62.000 C 138.180 62.000,138.000 62.360,138.000 62.800 C 138.000 63.240,137.820 63.600,137.600 63.600 C 137.380 63.600,137.200 63.920,137.200 64.312 C 137.200 64.703,136.840 65.283,136.400 65.600 C 135.960 65.917,135.600 66.497,135.600 66.888 C 135.600 67.280,135.420 67.600,135.200 67.600 C 134.980 67.600,134.800 67.960,134.800 68.400 C 134.800 68.840,134.620 69.200,134.400 69.200 C 134.180 69.200,134.000 69.560,134.000 70.000 C 134.000 70.440,133.820 70.800,133.600 70.800 C 133.380 70.800,133.200 71.160,133.200 71.600 C 133.200 72.040,133.020 72.400,132.800 72.400 C 132.580 72.400,132.400 72.720,132.400 73.112 C 132.400 73.503,132.040 74.083,131.600 74.400 C 131.160 74.717,130.800 75.297,130.800 75.688 C 130.800 76.080,130.654 76.400,130.475 76.400 C 130.296 76.400,129.902 77.030,129.600 77.800 C 129.298 78.570,128.904 79.200,128.725 79.200 C 128.546 79.200,128.400 79.560,128.400 80.000 C 128.400 80.440,128.220 80.800,128.000 80.800 C 127.780 80.800,127.600 81.160,127.600 81.600 C 127.600 82.040,127.409 82.400,127.176 82.400 C 126.943 82.400,126.855 82.565,126.980 82.768 C 127.105 82.970,126.923 83.420,126.575 83.768 C 126.227 84.115,126.059 84.400,126.200 84.400 C 126.341 84.400,126.165 84.692,125.809 85.048 C 125.452 85.405,125.057 86.215,124.930 86.848 C 124.804 87.482,124.543 88.000,124.350 88.000 C 124.158 88.000,124.000 88.360,124.000 88.800 C 124.000 89.240,123.820 89.600,123.600 89.600 C 123.380 89.600,123.200 89.960,123.200 90.400 C 123.200 90.840,123.020 91.200,122.800 91.200 C 122.580 91.200,122.400 91.470,122.400 91.800 C 122.400 92.130,122.220 92.400,122.000 92.400 C 121.780 92.400,121.600 93.398,121.600 94.618 C 121.600 97.046,122.757 98.800,124.358 98.800 C 124.795 98.800,125.264 98.980,125.400 99.200 C 125.536 99.420,126.007 99.600,126.447 99.600 C 126.887 99.600,127.136 99.780,127.000 100.000 C 126.864 100.220,127.046 100.400,127.405 100.400 C 129.062 100.400,129.276 101.491,127.910 102.979 C 127.193 103.760,126.455 104.400,126.271 104.400 C 126.088 104.400,125.246 105.120,124.400 106.000 C 123.554 106.880,122.643 107.600,122.375 107.600 C 122.106 107.600,121.372 108.138,120.743 108.796 C 120.114 109.454,119.600 109.877,119.600 109.735 C 119.600 109.593,119.264 109.865,118.853 110.339 C 118.442 110.812,117.924 111.200,117.701 111.200 C 117.479 111.200,116.555 111.920,115.648 112.800 C 114.741 113.680,113.841 114.400,113.648 114.400 C 113.455 114.400,112.555 115.120,111.648 116.000 C 110.741 116.880,109.898 117.600,109.774 117.600 C 109.650 117.600,108.671 118.500,107.600 119.600 C 106.529 120.700,105.446 121.600,105.195 121.600 C 104.943 121.600,104.046 122.320,103.200 123.200 C 102.354 124.080,101.443 124.800,101.175 124.800 C 100.906 124.800,100.186 125.324,99.574 125.964 C 98.962 126.604,98.358 127.024,98.231 126.897 C 98.104 126.771,98.000 126.865,98.000 127.106 C 98.000 127.348,97.669 127.651,97.265 127.779 C 96.861 127.908,95.687 128.820,94.658 129.806 C 93.628 130.793,92.685 131.600,92.562 131.600 C 92.438 131.600,91.646 132.320,90.800 133.200 C 89.954 134.080,89.054 134.800,88.800 134.800 C 88.546 134.800,87.646 135.520,86.800 136.400 C 85.954 137.280,85.057 138.000,84.805 138.000 C 84.554 138.000,83.471 138.900,82.400 140.000 C 81.329 141.100,80.239 142.000,79.979 142.000 C 79.341 142.000,76.796 144.262,77.096 144.562 C 77.226 144.693,77.003 144.800,76.600 144.800 C 76.197 144.800,75.986 144.919,76.131 145.064 C 76.276 145.209,76.036 145.580,75.597 145.887 C 74.436 146.700,74.493 149.339,75.689 150.177 C 76.178 150.520,76.414 150.800,76.213 150.800 C 76.012 150.800,76.196 151.064,76.624 151.387 C 77.503 152.052,80.000 152.210,80.000 151.600 C 80.000 151.380,80.284 151.200,80.631 151.200 C 80.979 151.200,81.954 150.480,82.800 149.600 C 83.646 148.720,84.546 148.000,84.800 148.000 C 85.054 148.000,85.954 147.280,86.800 146.400 C 87.646 145.520,88.531 144.800,88.769 144.800 C 89.006 144.800,89.200 144.620,89.200 144.400 C 89.200 144.180,89.404 144.000,89.653 144.000 C 90.156 144.000,91.600 142.471,91.600 141.939 C 91.600 141.752,91.922 141.600,92.317 141.600 C 92.711 141.600,93.701 140.970,94.518 140.200 C 95.334 139.430,96.163 138.800,96.360 138.800 C 96.558 138.800,97.638 137.900,98.761 136.800 C 99.885 135.700,100.961 134.800,101.154 134.800 C 101.346 134.800,102.245 134.080,103.152 133.200 C 104.059 132.320,104.937 131.600,105.103 131.600 C 105.568 131.600,108.800 128.454,108.800 128.001 C 108.800 127.780,109.088 127.600,109.440 127.600 C 109.791 127.600,110.558 127.087,111.145 126.459 C 111.731 125.832,112.748 125.037,113.405 124.692 C 114.062 124.347,115.298 123.421,116.150 122.633 C 117.003 121.845,117.826 121.200,117.979 121.200 C 118.132 121.200,119.102 120.390,120.135 119.400 C 121.169 118.410,122.146 117.599,122.307 117.598 C 122.753 117.595,125.200 115.212,125.200 114.780 C 125.200 114.571,125.484 114.400,125.831 114.400 C 126.179 114.400,127.154 113.680,128.000 112.800 C 128.846 111.920,129.737 111.200,129.982 111.200 C 130.227 111.200,131.041 110.615,131.792 109.900 C 133.381 108.387,133.693 108.139,135.697 106.800 C 136.521 106.250,137.196 105.665,137.197 105.500 C 137.199 105.335,137.560 105.200,138.000 105.200 C 138.440 105.200,138.800 105.380,138.800 105.600 C 138.800 105.820,139.160 106.000,139.600 106.000 C 140.040 106.000,140.400 106.180,140.400 106.400 C 140.400 106.620,140.760 106.800,141.200 106.800 C 141.640 106.800,142.000 106.960,142.000 107.157 C 142.000 107.453,143.437 108.042,144.467 108.167 C 144.613 108.185,144.868 108.335,145.033 108.500 C 145.198 108.665,145.753 108.800,146.267 108.800 C 146.780 108.800,147.200 108.980,147.200 109.200 C 147.200 109.420,147.560 109.600,148.000 109.600 C 148.440 109.600,148.800 109.780,148.800 110.000 C 148.800 110.220,149.160 110.400,149.600 110.400 C 150.040 110.400,150.400 110.580,150.400 110.800 C 150.400 111.020,150.760 111.200,151.200 111.200 C 151.640 111.200,152.000 111.380,152.000 111.600 C 152.000 111.820,152.360 112.000,152.800 112.000 C 153.240 112.000,153.600 112.180,153.600 112.400 C 153.600 112.620,153.960 112.800,154.400 112.800 C 154.840 112.800,155.200 112.980,155.200 113.200 C 155.200 113.420,155.560 113.600,156.000 113.600 C 156.440 113.600,156.800 113.780,156.800 114.000 C 156.800 114.220,157.250 114.400,157.800 114.400 C 158.533 114.400,158.800 114.187,158.800 113.600 C 158.800 113.160,158.980 112.800,159.200 112.800 C 159.420 112.800,159.600 112.440,159.600 112.000 C 159.600 111.560,159.780 111.200,160.000 111.200 C 160.220 111.200,160.400 110.840,160.400 110.400 C 160.400 109.960,160.580 109.600,160.800 109.600 C 161.402 109.600,161.281 108.023,160.629 107.371 C 160.314 107.057,159.774 106.800,159.429 106.800 C 159.083 106.800,158.800 106.620,158.800 106.400 C 158.800 106.180,158.350 106.000,157.800 106.000 C 157.250 106.000,156.800 105.820,156.800 105.600 C 156.800 105.380,156.440 105.200,156.000 105.200 C 155.560 105.200,155.200 105.020,155.200 104.800 C 155.200 104.580,154.840 104.400,154.400 104.400 C 153.960 104.400,153.600 104.220,153.600 104.000 C 153.600 103.780,153.240 103.600,152.800 103.600 C 152.360 103.600,152.000 103.420,152.000 103.200 C 152.000 102.980,151.640 102.800,151.200 102.800 C 150.760 102.800,150.400 102.620,150.400 102.400 C 150.400 102.180,150.040 102.000,149.600 102.000 C 149.160 102.000,148.800 101.820,148.800 101.600 C 148.800 101.380,148.260 101.200,147.600 101.200 C 146.940 101.200,146.400 101.020,146.400 100.800 C 146.400 100.580,146.040 100.400,145.600 100.400 C 145.145 100.400,144.800 100.133,144.800 99.782 C 144.800 99.069,146.546 97.200,147.213 97.200 C 147.460 97.200,148.354 96.480,149.200 95.600 C 150.046 94.720,150.949 94.000,151.208 94.000 C 151.467 94.000,152.156 93.497,152.740 92.883 C 153.323 92.268,154.462 91.361,155.272 90.867 C 156.082 90.373,157.291 89.346,157.960 88.585 C 158.628 87.823,159.375 87.200,159.619 87.200 C 159.863 87.200,160.754 86.480,161.600 85.600 C 162.446 84.720,163.346 84.000,163.600 84.000 C 163.854 84.000,164.754 83.280,165.600 82.400 C 166.446 81.520,167.307 80.800,167.515 80.800 C 168.678 80.800,172.400 76.425,172.400 75.058 C 172.400 74.282,172.580 73.536,172.800 73.400 C 173.020 73.264,173.200 72.749,173.200 72.255 C 173.200 71.297,175.133 67.090,175.676 66.867 C 175.854 66.793,176.000 66.388,176.000 65.967 C 176.000 64.924,174.359 64.946,173.600 66.000 C 173.283 66.440,172.781 66.800,172.486 66.800 C 172.190 66.800,171.071 67.700,170.000 68.800 C 168.929 69.900,167.846 70.800,167.595 70.800 C 167.343 70.800,166.446 71.520,165.600 72.400 C 164.754 73.280,163.845 74.000,163.578 74.000 C 163.312 74.000,162.803 74.324,162.447 74.721 C 162.091 75.117,161.080 75.972,160.200 76.621 C 159.320 77.269,157.939 78.475,157.131 79.300 C 156.324 80.125,155.454 80.800,155.200 80.800 C 154.946 80.800,154.046 81.520,153.200 82.400 C 152.354 83.280,151.454 84.000,151.200 84.000 C 150.946 84.000,150.046 84.720,149.200 85.600 C 148.354 86.480,147.454 87.200,147.200 87.200 C 146.946 87.200,146.046 87.920,145.200 88.800 C 144.354 89.680,143.550 90.400,143.413 90.400 C 143.276 90.400,142.677 90.854,142.082 91.410 C 139.944 93.405,139.384 93.846,138.300 94.386 C 137.695 94.688,137.200 95.085,137.200 95.268 C 137.200 95.450,136.660 95.600,136.000 95.600 C 135.340 95.600,134.800 95.420,134.800 95.200 C 134.800 94.980,134.440 94.800,134.000 94.800 C 133.560 94.800,133.200 94.620,133.200 94.400 C 133.200 94.180,132.840 94.000,132.400 94.000 C 131.960 94.000,131.600 93.812,131.600 93.582 C 131.600 93.353,131.304 93.218,130.941 93.282 C 130.579 93.347,130.204 93.175,130.108 92.900 C 130.012 92.625,130.128 92.400,130.367 92.400 C 130.605 92.400,130.800 92.130,130.800 91.800 C 130.800 91.470,130.980 91.200,131.200 91.200 C 131.420 91.200,131.600 90.930,131.600 90.600 C 131.600 90.270,131.780 90.000,132.000 90.000 C 132.220 90.000,132.400 89.730,132.400 89.400 C 132.400 89.070,132.580 88.800,132.800 88.800 C 133.020 88.800,133.200 88.440,133.200 88.000 C 133.200 87.560,133.380 87.200,133.600 87.200 C 133.820 87.200,134.000 86.840,134.000 86.400 C 134.000 85.960,134.180 85.600,134.400 85.600 C 134.620 85.600,134.800 85.240,134.800 84.800 C 134.800 84.360,134.952 84.000,135.137 84.000 C 135.323 84.000,135.908 83.145,136.437 82.100 C 136.967 81.055,137.535 80.140,137.700 80.067 C 137.865 79.993,138.000 79.588,138.000 79.167 C 138.000 78.745,138.180 78.400,138.400 78.400 C 138.620 78.400,138.800 78.040,138.800 77.600 C 138.800 77.160,138.980 76.800,139.200 76.800 C 139.420 76.800,139.600 76.440,139.600 76.000 C 139.600 75.560,139.735 75.198,139.900 75.195 C 140.065 75.192,140.740 74.022,141.400 72.595 C 142.060 71.168,142.735 70.000,142.900 70.000 C 143.065 70.000,143.200 69.640,143.200 69.200 C 143.200 68.760,143.380 68.400,143.600 68.400 C 143.820 68.400,144.000 68.040,144.000 67.600 C 144.000 67.160,144.180 66.800,144.400 66.800 C 144.620 66.800,144.800 66.440,144.800 66.000 C 144.800 65.560,144.980 65.200,145.200 65.200 C 145.420 65.200,145.600 64.840,145.600 64.400 C 145.600 63.960,145.780 63.600,146.000 63.600 C 146.220 63.600,146.400 63.240,146.400 62.800 C 146.400 62.360,146.580 62.000,146.800 62.000 C 147.020 62.000,147.200 61.706,147.200 61.347 C 147.200 60.988,147.518 60.403,147.907 60.047 C 148.296 59.691,149.061 58.500,149.607 57.400 C 150.153 56.300,150.735 55.340,150.900 55.267 C 151.065 55.193,151.200 54.788,151.200 54.367 C 151.200 53.945,151.380 53.600,151.600 53.600 C 151.820 53.600,152.000 53.322,152.000 52.983 C 152.000 52.644,152.360 51.980,152.800 51.508 C 153.240 51.036,153.600 50.233,153.600 49.725 C 153.600 49.216,153.754 48.800,153.943 48.800 C 154.430 48.800,158.800 39.829,158.800 38.829 C 158.800 38.373,158.980 38.000,159.200 38.000 C 159.420 38.000,159.600 37.460,159.600 36.800 C 159.600 36.140,159.420 35.600,159.200 35.600 C 158.980 35.600,158.800 35.276,158.800 34.880 C 158.800 32.942,154.541 32.458,152.900 34.210 M241.700 33.798 C 241.425 34.111,241.200 34.644,241.200 34.983 C 241.200 35.322,241.020 35.600,240.800 35.600 C 240.580 35.600,240.400 36.140,240.400 36.800 C 240.400 37.460,240.580 38.000,240.800 38.000 C 241.020 38.000,241.200 38.362,241.200 38.805 C 241.200 39.671,241.948 41.215,242.600 41.694 C 242.820 41.856,242.859 41.991,242.686 41.994 C 242.513 41.997,242.597 42.405,242.872 42.900 C 243.147 43.395,243.381 43.890,243.391 44.000 C 243.457 44.666,247.360 52.000,247.648 52.000 C 247.842 52.000,248.000 52.360,248.000 52.800 C 248.000 53.240,248.180 53.600,248.400 53.600 C 248.620 53.600,248.800 53.960,248.800 54.400 C 248.800 54.840,248.935 55.201,249.100 55.201 C 249.265 55.202,249.850 56.192,250.400 57.400 C 250.950 58.608,251.535 59.598,251.700 59.599 C 251.865 59.599,252.000 59.920,252.000 60.312 C 252.000 60.703,252.360 61.283,252.800 61.600 C 253.240 61.917,253.600 62.497,253.600 62.888 C 253.600 63.280,253.780 63.600,254.000 63.600 C 254.220 63.600,254.400 63.960,254.400 64.400 C 254.400 64.840,254.580 65.200,254.800 65.200 C 255.020 65.200,255.200 65.560,255.200 66.000 C 255.200 66.440,255.380 66.800,255.600 66.800 C 255.820 66.800,256.000 67.160,256.000 67.600 C 256.000 68.040,256.180 68.400,256.400 68.400 C 256.620 68.400,256.800 68.760,256.800 69.200 C 256.800 69.640,256.980 70.000,257.200 70.000 C 257.420 70.000,257.600 70.320,257.600 70.712 C 257.600 71.103,257.944 71.671,258.364 71.974 C 258.784 72.276,259.045 72.737,258.945 72.998 C 258.845 73.259,259.040 73.701,259.377 73.981 C 259.715 74.261,259.893 74.650,259.772 74.845 C 259.651 75.040,259.743 75.200,259.976 75.200 C 260.209 75.200,260.400 75.560,260.400 76.000 C 260.400 76.440,260.580 76.800,260.800 76.800 C 261.020 76.800,261.200 77.160,261.200 77.600 C 261.200 78.040,261.380 78.400,261.600 78.400 C 261.820 78.400,262.000 78.760,262.000 79.200 C 262.000 79.640,262.180 80.000,262.400 80.000 C 262.620 80.000,262.800 80.236,262.800 80.525 C 262.800 80.813,263.160 81.436,263.600 81.908 C 264.040 82.380,264.400 83.044,264.400 83.383 C 264.400 83.722,264.580 84.000,264.800 84.000 C 265.020 84.000,265.200 84.360,265.200 84.800 C 265.200 85.240,265.380 85.600,265.600 85.600 C 265.820 85.600,266.000 85.960,266.000 86.400 C 266.000 86.840,266.180 87.200,266.400 87.200 C 266.620 87.200,266.800 87.560,266.800 88.000 C 266.800 88.440,266.980 88.800,267.200 88.800 C 267.420 88.800,267.600 89.036,267.600 89.325 C 267.600 89.613,267.960 90.236,268.400 90.708 C 268.840 91.180,269.200 91.754,269.200 91.983 C 269.200 92.212,269.395 92.400,269.633 92.400 C 269.872 92.400,269.992 92.625,269.900 92.900 C 269.808 93.175,269.538 93.400,269.300 93.400 C 269.062 93.400,268.732 93.535,268.567 93.700 C 268.402 93.865,267.937 94.000,267.533 94.000 C 267.130 94.000,266.800 94.180,266.800 94.400 C 266.800 94.620,266.440 94.800,266.000 94.800 C 265.560 94.800,265.200 94.980,265.200 95.200 C 265.200 95.420,264.660 95.600,264.000 95.600 C 263.340 95.600,262.800 95.420,262.800 95.200 C 262.800 94.980,262.480 94.800,262.088 94.800 C 261.697 94.800,261.124 94.450,260.815 94.021 C 260.507 93.593,260.107 93.334,259.927 93.445 C 259.747 93.556,259.600 93.379,259.600 93.051 C 259.600 92.722,259.223 92.334,258.762 92.188 C 258.301 92.042,257.023 91.040,255.922 89.961 C 254.820 88.882,253.739 88.000,253.520 88.000 C 253.301 88.000,252.617 87.460,252.000 86.800 C 251.383 86.140,250.682 85.600,250.442 85.600 C 250.202 85.600,248.908 84.520,247.568 83.200 C 246.227 81.880,244.948 80.800,244.726 80.800 C 244.503 80.800,243.817 80.260,243.200 79.600 C 242.583 78.940,241.926 78.398,241.740 78.396 C 241.553 78.393,240.524 77.583,239.453 76.596 C 238.382 75.608,237.333 74.800,237.121 74.800 C 236.910 74.800,236.046 74.080,235.200 73.200 C 234.354 72.320,233.457 71.600,233.205 71.600 C 232.954 71.600,231.871 70.700,230.800 69.600 C 229.729 68.500,228.642 67.600,228.386 67.600 C 228.130 67.600,227.417 67.060,226.800 66.400 C 226.183 65.740,225.458 65.200,225.187 65.200 C 224.471 65.200,224.960 68.272,225.828 69.231 C 226.211 69.654,226.378 70.000,226.200 70.000 C 226.022 70.000,226.152 70.315,226.489 70.700 C 226.827 71.085,227.037 71.796,226.957 72.280 C 226.877 72.764,226.989 73.269,227.206 73.403 C 227.423 73.538,227.600 74.537,227.600 75.624 C 227.600 77.150,227.742 77.600,228.226 77.600 C 228.570 77.600,229.729 78.500,230.800 79.600 C 231.871 80.700,232.954 81.600,233.205 81.600 C 233.457 81.600,234.354 82.320,235.200 83.200 C 236.046 84.080,236.936 84.800,237.179 84.800 C 237.422 84.800,238.409 85.565,239.373 86.500 C 241.552 88.615,243.895 90.508,245.183 91.194 C 245.723 91.481,247.017 92.591,248.057 93.658 C 249.097 94.726,250.158 95.600,250.414 95.600 C 250.670 95.600,251.383 96.140,252.000 96.800 C 252.617 97.460,253.327 98.000,253.579 98.000 C 254.036 98.000,256.000 99.770,256.000 100.182 C 256.000 100.302,255.460 100.400,254.800 100.400 C 254.140 100.400,253.600 100.580,253.600 100.800 C 253.600 101.020,253.240 101.200,252.800 101.200 C 252.360 101.200,252.000 101.380,252.000 101.600 C 252.000 101.820,251.640 102.000,251.200 102.000 C 250.760 102.000,250.400 102.180,250.400 102.400 C 250.400 102.620,250.040 102.800,249.600 102.800 C 249.160 102.800,248.800 102.980,248.800 103.200 C 248.800 103.420,248.440 103.600,248.000 103.600 C 247.560 103.600,247.200 103.780,247.200 104.000 C 247.200 104.220,246.840 104.400,246.400 104.400 C 245.960 104.400,245.600 104.580,245.600 104.800 C 245.600 105.020,245.240 105.200,244.800 105.200 C 244.360 105.200,244.000 105.380,244.000 105.600 C 244.000 105.820,243.640 106.000,243.200 106.000 C 242.760 106.000,242.400 106.180,242.400 106.400 C 242.400 106.620,242.130 106.800,241.800 106.800 C 241.470 106.800,241.200 106.980,241.200 107.200 C 241.200 107.420,240.917 107.600,240.571 107.600 C 239.853 107.600,238.800 108.534,238.800 109.171 C 238.800 109.407,238.980 109.600,239.200 109.600 C 239.420 109.600,239.600 109.960,239.600 110.400 C 239.600 110.840,239.780 111.200,240.000 111.200 C 240.220 111.200,240.400 111.560,240.400 112.000 C 240.400 112.440,240.580 112.800,240.800 112.800 C 241.020 112.800,241.200 113.160,241.200 113.600 C 241.200 114.248,241.467 114.400,242.600 114.400 C 243.370 114.400,244.000 114.220,244.000 114.000 C 244.000 113.780,244.360 113.600,244.800 113.600 C 245.240 113.600,245.600 113.420,245.600 113.200 C 245.600 112.980,245.960 112.800,246.400 112.800 C 246.840 112.800,247.200 112.620,247.200 112.400 C 247.200 112.180,247.560 112.000,248.000 112.000 C 248.440 112.000,248.800 111.820,248.800 111.600 C 248.800 111.380,249.300 111.200,249.912 111.200 C 250.565 111.200,251.261 110.870,251.600 110.400 C 251.917 109.960,252.497 109.600,252.888 109.600 C 253.280 109.600,253.600 109.420,253.600 109.200 C 253.600 108.980,254.005 108.799,254.500 108.798 C 254.995 108.797,256.286 108.347,257.368 107.798 C 258.450 107.249,259.575 106.800,259.868 106.800 C 260.161 106.800,260.400 106.620,260.400 106.400 C 260.400 106.180,260.745 106.000,261.167 106.000 C 261.588 106.000,262.007 105.780,262.096 105.511 C 262.202 105.193,262.611 105.367,263.271 106.011 C 265.053 107.753,266.394 108.800,266.843 108.800 C 267.083 108.800,267.783 109.340,268.400 110.000 C 269.017 110.660,269.730 111.200,269.986 111.200 C 270.242 111.200,271.329 112.100,272.400 113.200 C 273.471 114.300,274.495 115.203,274.674 115.207 C 274.853 115.210,275.707 115.930,276.570 116.807 C 277.434 117.683,278.286 118.400,278.463 118.400 C 278.641 118.400,279.631 119.210,280.665 120.200 C 281.698 121.190,282.668 122.000,282.821 122.000 C 282.974 122.000,283.787 122.630,284.628 123.400 C 285.469 124.170,286.385 124.800,286.665 124.800 C 286.945 124.800,287.803 125.430,288.573 126.200 C 289.343 126.970,290.210 127.600,290.498 127.600 C 290.787 127.600,291.288 127.988,291.612 128.462 C 292.444 129.681,294.449 131.600,294.891 131.600 C 295.095 131.600,295.954 132.320,296.800 133.200 C 297.646 134.080,298.546 134.800,298.800 134.800 C 299.054 134.800,299.954 135.520,300.800 136.400 C 301.646 137.280,302.537 138.000,302.782 138.000 C 303.027 138.000,303.874 138.648,304.666 139.439 C 305.457 140.231,306.621 141.058,307.252 141.278 C 307.884 141.498,308.400 141.839,308.400 142.036 C 308.400 142.500,310.806 144.800,311.291 144.800 C 311.495 144.800,312.354 145.520,313.200 146.400 C 314.046 147.280,314.946 148.000,315.200 148.000 C 315.454 148.000,316.354 148.720,317.200 149.600 C 318.046 150.480,319.021 151.200,319.369 151.200 C 319.716 151.200,320.000 151.380,320.000 151.600 C 320.000 152.538,322.694 151.988,323.941 150.797 C 326.042 148.788,325.765 146.986,322.929 144.217 C 321.680 142.998,320.439 142.000,320.170 142.000 C 319.901 142.000,318.762 141.100,317.639 140.000 C 316.515 138.900,315.399 138.000,315.158 138.000 C 314.918 138.000,314.217 137.460,313.600 136.800 C 312.983 136.140,312.271 135.600,312.017 135.600 C 311.763 135.600,310.496 134.520,309.200 133.200 C 307.904 131.880,306.743 130.800,306.619 130.800 C 306.494 130.800,305.828 130.260,305.137 129.600 C 304.446 128.940,303.704 128.400,303.488 128.400 C 303.271 128.400,302.758 128.012,302.347 127.539 C 301.936 127.065,301.600 126.793,301.600 126.935 C 301.600 127.077,301.086 126.654,300.457 125.996 C 299.828 125.338,299.094 124.800,298.825 124.800 C 298.557 124.800,297.646 124.080,296.800 123.200 C 295.954 122.320,295.054 121.600,294.800 121.600 C 294.546 121.600,293.646 120.880,292.800 120.000 C 291.954 119.120,291.159 118.400,291.032 118.400 C 290.905 118.400,290.059 117.680,289.152 116.800 C 288.245 115.920,287.341 115.200,287.141 115.200 C 286.942 115.200,285.969 114.390,284.979 113.400 C 283.989 112.410,283.012 111.600,282.808 111.600 C 282.603 111.600,281.978 111.142,281.418 110.582 C 280.836 110.000,280.397 109.786,280.394 110.082 C 280.391 110.367,280.161 110.152,279.884 109.604 C 279.607 109.055,279.037 108.541,278.617 108.460 C 278.197 108.379,277.181 107.613,276.358 106.757 C 275.536 105.900,274.744 105.200,274.600 105.200 C 274.456 105.200,273.646 104.480,272.800 103.600 C 271.954 102.720,270.979 102.000,270.631 102.000 C 270.284 102.000,270.000 101.820,270.000 101.600 C 270.000 101.380,270.360 101.200,270.800 101.200 C 271.240 101.200,271.600 101.020,271.600 100.800 C 271.600 100.580,271.960 100.400,272.400 100.400 C 272.840 100.400,273.200 100.220,273.200 100.000 C 273.200 99.780,273.650 99.600,274.200 99.600 C 274.750 99.600,275.200 99.420,275.200 99.200 C 275.200 98.980,275.478 98.800,275.818 98.800 C 277.255 98.800,278.400 96.945,278.400 94.618 C 278.400 93.398,278.220 92.400,278.000 92.400 C 277.780 92.400,277.600 92.130,277.600 91.800 C 277.600 91.470,277.420 91.200,277.200 91.200 C 276.980 91.200,276.800 90.840,276.800 90.400 C 276.800 89.960,276.620 89.600,276.400 89.600 C 276.180 89.600,276.000 89.240,276.000 88.800 C 276.000 88.360,275.820 88.000,275.600 88.000 C 275.380 88.000,275.200 87.736,275.200 87.414 C 275.200 86.601,273.924 84.000,273.526 84.000 C 273.347 84.000,273.200 83.640,273.200 83.200 C 273.200 82.760,273.020 82.400,272.800 82.400 C 272.580 82.400,272.400 82.040,272.400 81.600 C 272.400 81.160,272.220 80.800,272.000 80.800 C 271.780 80.800,271.600 80.440,271.600 80.000 C 271.600 79.560,271.454 79.200,271.275 79.200 C 271.096 79.200,270.702 78.570,270.400 77.800 C 270.098 77.030,269.704 76.400,269.525 76.400 C 269.346 76.400,269.200 76.080,269.200 75.688 C 269.200 75.297,268.840 74.717,268.400 74.400 C 267.960 74.083,267.600 73.503,267.600 73.112 C 267.600 72.720,267.420 72.400,267.200 72.400 C 266.980 72.400,266.800 72.040,266.800 71.600 C 266.800 71.160,266.620 70.800,266.400 70.800 C 266.180 70.800,266.000 70.440,266.000 70.000 C 266.000 69.560,265.820 69.200,265.600 69.200 C 265.380 69.200,265.200 68.840,265.200 68.400 C 265.200 67.960,265.020 67.600,264.800 67.600 C 264.580 67.600,264.400 67.280,264.400 66.888 C 264.400 66.497,264.040 65.917,263.600 65.600 C 263.160 65.283,262.800 64.703,262.800 64.312 C 262.800 63.920,262.620 63.600,262.400 63.600 C 262.180 63.600,262.000 63.240,262.000 62.800 C 262.000 62.360,261.820 62.000,261.600 62.000 C 261.380 62.000,261.200 61.640,261.200 61.200 C 261.200 60.760,261.054 60.400,260.875 60.400 C 260.696 60.400,260.302 59.770,260.000 59.000 C 259.698 58.230,259.304 57.600,259.125 57.600 C 258.946 57.600,258.800 57.336,258.800 57.014 C 258.800 56.201,257.524 53.600,257.126 53.600 C 256.947 53.600,256.800 53.240,256.800 52.800 C 256.800 52.360,256.620 52.000,256.400 52.000 C 256.180 52.000,256.000 51.640,256.000 51.200 C 256.000 50.760,255.820 50.400,255.600 50.400 C 255.380 50.400,255.200 50.040,255.200 49.600 C 255.200 49.160,255.020 48.800,254.800 48.800 C 254.580 48.800,254.400 48.440,254.400 48.000 C 254.400 47.560,254.265 47.199,254.100 47.199 C 253.935 47.198,253.350 46.208,252.800 45.000 C 252.250 43.792,251.665 42.802,251.500 42.801 C 251.335 42.801,251.200 42.440,251.200 42.000 C 251.200 41.560,251.020 41.200,250.800 41.200 C 250.580 41.200,250.400 40.840,250.400 40.400 C 250.400 39.960,250.220 39.600,250.000 39.600 C 249.780 39.600,249.600 39.240,249.600 38.800 C 249.600 38.360,249.420 38.000,249.200 38.000 C 248.980 38.000,248.800 37.640,248.800 37.200 C 248.800 36.760,248.620 36.400,248.400 36.400 C 248.180 36.400,248.000 36.122,248.000 35.782 C 248.000 33.735,243.111 32.196,241.700 33.798 M193.600 64.000 C 193.600 64.220,193.060 64.400,192.400 64.400 C 191.740 64.400,191.200 64.580,191.200 64.800 C 191.200 65.020,190.840 65.200,190.400 65.200 C 189.960 65.200,189.600 65.380,189.600 65.600 C 189.600 65.820,189.280 66.000,188.888 66.000 C 188.497 66.000,187.917 66.360,187.600 66.800 C 186.975 67.667,182.400 68.019,182.400 67.200 C 182.400 66.980,182.124 66.800,181.787 66.800 C 180.991 66.800,178.400 69.391,178.400 70.187 C 178.400 70.524,178.220 70.800,178.000 70.800 C 177.780 70.800,177.600 71.160,177.600 71.600 C 177.600 72.040,177.465 72.400,177.300 72.400 C 177.135 72.400,176.987 73.750,176.971 75.400 C 176.955 77.050,177.072 78.400,177.230 78.400 C 177.920 78.400,178.673 88.287,178.032 88.928 C 177.794 89.166,177.600 89.954,177.600 90.680 C 177.600 91.419,177.395 92.000,177.133 92.000 C 176.877 92.000,176.775 92.108,176.907 92.240 C 177.039 92.372,176.619 93.456,175.973 94.649 C 175.328 95.842,174.800 97.044,174.800 97.321 C 174.800 97.597,174.440 98.083,174.000 98.400 C 173.560 98.717,173.200 99.225,173.200 99.528 C 173.200 99.831,172.660 100.583,172.000 101.200 C 171.340 101.817,170.800 102.537,170.800 102.800 C 170.800 103.063,170.260 103.783,169.600 104.400 C 168.940 105.017,168.400 105.769,168.400 106.072 C 168.400 106.375,168.040 106.883,167.600 107.200 C 167.160 107.517,166.800 107.915,166.800 108.084 C 166.800 108.378,165.955 109.504,164.900 110.616 C 164.625 110.906,164.400 111.336,164.400 111.571 C 164.400 111.807,164.220 112.000,164.000 112.000 C 163.780 112.000,163.600 112.349,163.600 112.776 C 163.600 113.203,163.420 113.664,163.200 113.800 C 162.980 113.936,162.800 115.121,162.800 116.432 C 162.800 118.901,165.971 123.200,167.791 123.200 C 168.126 123.200,168.400 123.380,168.400 123.600 C 168.400 123.820,168.683 124.000,169.029 124.000 C 169.374 124.000,169.927 124.270,170.257 124.600 C 170.587 124.930,171.384 125.200,172.029 125.200 C 172.673 125.200,173.200 125.380,173.200 125.600 C 173.200 125.820,173.740 126.000,174.400 126.000 C 175.060 126.000,175.600 126.180,175.600 126.400 C 175.600 126.620,176.230 126.800,177.000 126.800 C 177.770 126.800,178.400 126.980,178.400 127.200 C 178.400 127.420,179.300 127.600,180.400 127.600 C 181.500 127.600,182.400 127.780,182.400 128.000 C 182.400 128.233,183.733 128.400,185.600 128.400 C 187.467 128.400,188.800 128.567,188.800 128.800 C 188.800 129.057,192.933 129.200,200.400 129.200 C 207.867 129.200,212.000 129.057,212.000 128.800 C 212.000 128.567,213.333 128.400,215.200 128.400 C 217.067 128.400,218.400 128.233,218.400 128.000 C 218.400 127.780,219.300 127.600,220.400 127.600 C 221.500 127.600,222.400 127.420,222.400 127.200 C 222.400 126.980,223.030 126.800,223.800 126.800 C 224.570 126.800,225.200 126.620,225.200 126.400 C 225.200 126.180,225.740 126.000,226.400 126.000 C 227.060 126.000,227.600 125.836,227.600 125.635 C 227.600 125.434,228.320 125.149,229.200 125.000 C 230.080 124.851,230.800 124.566,230.800 124.365 C 230.800 124.164,231.060 124.000,231.378 124.000 C 231.696 124.000,233.136 122.820,234.578 121.378 L 237.200 118.756 237.200 116.401 C 237.200 115.107,237.020 113.936,236.800 113.800 C 236.580 113.664,236.400 113.203,236.400 112.776 C 236.400 112.349,236.220 112.000,236.000 112.000 C 235.780 112.000,235.600 111.730,235.600 111.400 C 235.600 111.070,235.420 110.800,235.200 110.800 C 234.980 110.800,234.800 110.530,234.800 110.200 C 234.800 109.870,234.620 109.600,234.400 109.600 C 234.180 109.600,234.000 109.402,234.000 109.160 C 234.000 108.919,233.460 108.217,232.800 107.600 C 232.140 106.983,231.600 106.263,231.600 106.000 C 231.600 105.737,231.060 105.017,230.400 104.400 C 229.740 103.783,229.200 103.063,229.200 102.800 C 229.200 102.537,228.660 101.817,228.000 101.200 C 227.340 100.583,226.800 99.831,226.800 99.528 C 226.800 99.225,226.440 98.717,226.000 98.400 C 225.560 98.083,225.198 97.548,225.195 97.212 C 225.193 96.875,224.743 95.817,224.195 94.859 C 223.648 93.902,223.200 92.867,223.200 92.559 C 223.200 92.252,223.020 92.000,222.800 92.000 C 222.580 92.000,222.400 91.406,222.400 90.680 C 222.400 89.954,222.206 89.166,221.968 88.928 C 221.279 88.239,222.094 78.400,222.840 78.400 C 223.038 78.400,223.200 77.050,223.200 75.400 C 223.200 73.667,223.031 72.400,222.800 72.400 C 222.580 72.400,222.400 72.040,222.400 71.600 C 222.400 71.160,222.220 70.800,222.000 70.800 C 221.780 70.800,221.600 70.522,221.600 70.182 C 221.600 68.482,219.791 67.600,216.306 67.600 C 213.435 67.600,212.897 67.490,212.400 66.800 C 212.083 66.360,211.503 66.000,211.112 66.000 C 210.720 66.000,210.400 65.820,210.400 65.600 C 210.400 65.380,210.040 65.200,209.600 65.200 C 209.160 65.200,208.800 65.020,208.800 64.800 C 208.800 64.580,208.260 64.400,207.600 64.400 C 206.940 64.400,206.400 64.220,206.400 64.000 C 206.400 63.750,204.000 63.600,200.000 63.600 C 196.000 63.600,193.600 63.750,193.600 64.000 M161.900 125.476 C 161.515 125.576,161.200 125.918,161.200 126.235 C 161.200 126.552,161.033 127.123,160.829 127.505 C 160.493 128.134,159.944 129.494,159.820 130.000 C 159.794 130.110,159.554 130.592,159.287 131.071 C 159.021 131.550,158.911 132.225,159.044 132.571 C 159.177 132.917,159.086 133.200,158.843 133.200 C 158.599 133.200,158.400 133.560,158.400 134.000 C 158.400 134.440,158.220 134.800,158.000 134.800 C 157.780 134.800,157.600 135.340,157.600 136.000 C 157.600 136.660,157.420 137.200,157.200 137.200 C 156.980 137.200,156.800 137.740,156.800 138.400 C 156.800 139.060,156.620 139.600,156.400 139.600 C 156.180 139.600,156.000 139.960,156.000 140.400 C 156.000 140.840,155.820 141.200,155.600 141.200 C 155.380 141.200,155.200 141.830,155.200 142.600 C 155.200 143.370,155.020 144.000,154.800 144.000 C 154.580 144.000,154.400 144.540,154.400 145.200 C 154.400 145.860,154.220 146.400,154.000 146.400 C 153.780 146.400,153.600 146.940,153.600 147.600 C 153.600 148.260,153.420 148.800,153.200 148.800 C 152.980 148.800,152.800 149.340,152.800 150.000 C 152.800 150.660,152.620 151.200,152.400 151.200 C 152.180 151.200,152.000 151.920,152.000 152.800 C 152.000 153.680,151.820 154.400,151.600 154.400 C 151.380 154.400,151.200 154.940,151.200 155.600 C 151.200 156.260,151.020 156.800,150.800 156.800 C 150.580 156.800,150.400 157.430,150.400 158.200 C 150.400 158.970,150.220 159.600,150.000 159.600 C 149.780 159.600,149.600 160.129,149.600 160.776 C 149.600 161.423,149.420 162.064,149.200 162.200 C 148.980 162.336,148.800 163.067,148.800 163.824 C 148.800 164.581,148.620 165.200,148.400 165.200 C 148.180 165.200,148.000 165.920,148.000 166.800 C 148.000 167.680,147.820 168.400,147.600 168.400 C 147.380 168.400,147.200 169.120,147.200 170.000 C 147.200 170.880,147.020 171.600,146.800 171.600 C 146.580 171.600,146.400 172.320,146.400 173.200 C 146.400 174.080,146.220 174.800,146.000 174.800 C 145.780 174.800,145.600 175.509,145.600 176.376 C 145.600 177.243,145.420 178.064,145.200 178.200 C 144.980 178.336,144.800 179.157,144.800 180.024 C 144.800 180.891,144.638 181.600,144.440 181.600 C 144.109 181.600,143.845 183.021,143.455 186.896 C 143.372 187.719,143.081 188.662,142.807 188.991 C 142.534 189.320,142.415 189.862,142.543 190.195 C 142.670 190.527,142.423 192.195,141.994 193.900 C 141.564 195.605,141.210 197.765,141.206 198.700 C 141.203 199.635,141.020 200.400,140.800 200.400 C 140.580 200.400,140.400 201.300,140.400 202.400 C 140.400 203.500,140.220 204.400,140.000 204.400 C 139.774 204.400,139.600 205.533,139.600 207.000 C 139.600 208.467,139.426 209.600,139.200 209.600 C 138.978 209.600,138.800 210.667,138.800 212.000 C 138.800 213.333,138.622 214.400,138.400 214.400 C 138.178 214.400,138.000 215.467,138.000 216.800 C 138.000 218.133,137.822 219.200,137.600 219.200 C 137.367 219.200,137.200 220.533,137.200 222.400 C 137.200 224.267,137.033 225.600,136.800 225.600 C 136.569 225.600,136.400 226.867,136.400 228.600 C 136.400 230.333,136.231 231.600,136.000 231.600 C 135.758 231.600,135.600 233.333,135.600 236.000 C 135.600 238.667,135.442 240.400,135.200 240.400 C 134.944 240.400,134.800 244.133,134.800 250.800 C 134.800 257.467,134.944 261.200,135.200 261.200 C 135.422 261.200,135.600 262.267,135.600 263.600 C 135.600 264.933,135.778 266.000,136.000 266.000 C 136.220 266.000,136.400 266.900,136.400 268.000 C 136.400 269.100,136.580 270.000,136.800 270.000 C 137.020 270.000,137.200 270.540,137.200 271.200 C 137.200 271.860,137.380 272.400,137.600 272.400 C 137.820 272.400,138.000 272.940,138.000 273.600 C 138.000 274.260,138.180 274.800,138.400 274.800 C 138.620 274.800,138.800 275.250,138.800 275.800 C 138.800 276.350,138.980 276.800,139.200 276.800 C 139.420 276.800,139.600 277.340,139.600 278.000 C 139.600 278.660,139.780 279.200,140.000 279.200 C 140.220 279.200,140.400 279.740,140.400 280.400 C 140.400 281.060,140.580 281.600,140.800 281.600 C 141.020 281.600,141.200 281.834,141.200 282.120 C 141.200 282.843,142.138 284.793,142.487 284.797 C 142.646 284.799,142.672 285.068,142.546 285.397 C 142.420 285.725,142.576 286.093,142.892 286.214 C 143.208 286.335,143.467 286.662,143.467 286.941 C 143.467 287.606,145.679 292.161,146.085 292.333 C 146.258 292.407,146.400 292.812,146.400 293.233 C 146.400 293.655,146.580 294.000,146.800 294.000 C 147.020 294.000,147.200 294.320,147.200 294.712 C 147.200 295.103,147.560 295.683,148.000 296.000 C 148.440 296.317,148.800 296.897,148.800 297.288 C 148.800 297.680,148.980 298.000,149.200 298.000 C 149.420 298.000,149.600 298.360,149.600 298.800 C 149.600 299.240,149.780 299.600,150.000 299.600 C 150.220 299.600,150.400 299.825,150.401 300.100 C 150.401 300.375,150.941 301.230,151.600 302.000 C 152.259 302.770,152.799 303.625,152.799 303.900 C 152.800 304.175,152.980 304.400,153.200 304.400 C 153.420 304.400,153.600 304.670,153.600 305.000 C 153.600 305.330,153.780 305.600,154.000 305.600 C 154.220 305.600,154.400 305.830,154.400 306.112 C 154.400 306.393,154.760 306.883,155.200 307.200 C 155.640 307.517,156.000 307.967,156.000 308.200 C 156.000 308.433,156.360 308.883,156.800 309.200 C 157.240 309.517,157.600 310.014,157.600 310.305 C 157.600 310.849,157.943 311.336,159.500 313.001 C 159.995 313.530,160.400 314.166,160.400 314.413 C 160.400 314.660,161.120 315.554,162.000 316.400 C 162.880 317.246,163.600 318.119,163.600 318.341 C 163.600 318.701,167.544 322.737,171.378 326.300 L 172.777 327.600 200.000 327.600 L 227.223 327.600 228.622 326.300 C 232.337 322.847,236.400 318.707,236.400 318.373 C 236.400 318.168,237.120 317.259,238.000 316.352 C 238.880 315.445,239.600 314.537,239.600 314.334 C 239.600 314.130,240.050 313.514,240.600 312.964 C 241.150 312.414,241.600 311.684,241.600 311.342 C 241.600 311.001,242.140 310.217,242.800 309.600 C 243.460 308.983,244.000 308.321,244.000 308.128 C 244.000 307.935,244.360 307.517,244.800 307.200 C 245.240 306.883,245.600 306.393,245.600 306.112 C 245.600 305.830,245.780 305.600,246.000 305.600 C 246.220 305.600,246.400 305.330,246.400 305.000 C 246.400 304.670,246.580 304.400,246.800 304.400 C 247.020 304.400,247.200 304.080,247.200 303.688 C 247.200 303.297,247.560 302.717,248.000 302.400 C 248.440 302.083,248.800 301.543,248.800 301.200 C 248.800 300.857,249.160 300.317,249.600 300.000 C 250.040 299.683,250.400 299.186,250.400 298.895 C 250.400 298.604,250.760 297.980,251.200 297.508 C 251.640 297.036,252.000 296.413,252.000 296.125 C 252.000 295.836,252.180 295.600,252.400 295.600 C 252.620 295.600,252.800 295.240,252.800 294.800 C 252.800 294.360,252.980 294.000,253.200 294.000 C 253.420 294.000,253.600 293.640,253.600 293.200 C 253.600 292.760,253.746 292.400,253.925 292.400 C 254.104 292.400,254.498 291.770,254.800 291.000 C 255.102 290.230,255.496 289.600,255.675 289.600 C 255.854 289.600,256.000 289.365,256.000 289.077 C 256.000 288.789,256.629 287.304,257.399 285.777 C 258.168 284.250,258.798 282.505,258.799 281.900 C 258.799 281.295,258.980 280.800,259.200 280.800 C 259.420 280.800,259.600 280.440,259.600 280.000 C 259.600 279.560,259.780 279.200,260.000 279.200 C 260.220 279.200,260.400 278.660,260.400 278.000 C 260.400 277.340,260.580 276.800,260.800 276.800 C 261.020 276.800,261.200 276.350,261.200 275.800 C 261.200 275.250,261.380 274.800,261.600 274.800 C 261.820 274.800,262.000 274.260,262.000 273.600 C 262.000 272.940,262.180 272.400,262.400 272.400 C 262.620 272.400,262.800 271.860,262.800 271.200 C 262.800 270.540,262.980 270.000,263.200 270.000 C 263.420 270.000,263.600 269.291,263.600 268.424 C 263.600 267.557,263.780 266.736,264.000 266.600 C 264.220 266.464,264.400 265.193,264.400 263.776 C 264.400 262.325,264.575 261.200,264.800 261.200 C 265.056 261.200,265.200 257.467,265.200 250.800 C 265.200 244.133,265.056 240.400,264.800 240.400 C 264.558 240.400,264.400 238.667,264.400 236.000 C 264.400 233.333,264.242 231.600,264.000 231.600 C 263.769 231.600,263.600 230.333,263.600 228.600 C 263.600 226.867,263.431 225.600,263.200 225.600 C 262.971 225.600,262.800 224.400,262.800 222.800 C 262.800 221.200,262.629 220.000,262.400 220.000 C 262.171 220.000,262.000 218.800,262.000 217.200 C 262.000 215.600,261.829 214.400,261.600 214.400 C 261.374 214.400,261.200 213.267,261.200 211.800 C 261.200 210.333,261.026 209.200,260.800 209.200 C 260.580 209.200,260.400 208.300,260.400 207.200 C 260.400 206.100,260.220 205.200,260.000 205.200 C 259.778 205.200,259.600 204.133,259.600 202.800 C 259.600 201.480,259.445 200.400,259.255 200.400 C 259.065 200.400,258.782 198.828,258.627 196.907 C 258.471 194.985,258.196 193.230,258.017 193.007 C 257.713 192.628,257.529 191.651,256.947 187.300 C 256.822 186.365,256.558 185.600,256.360 185.600 C 256.162 185.600,256.000 184.801,256.000 183.824 C 256.000 182.847,255.820 181.936,255.600 181.800 C 255.380 181.664,255.200 180.843,255.200 179.976 C 255.200 179.109,255.020 178.400,254.800 178.400 C 254.580 178.400,254.400 177.590,254.400 176.600 C 254.400 175.610,254.220 174.800,254.000 174.800 C 253.780 174.800,253.600 174.080,253.600 173.200 C 253.600 172.320,253.420 171.600,253.200 171.600 C 252.980 171.600,252.800 170.880,252.800 170.000 C 252.800 169.120,252.620 168.400,252.400 168.400 C 252.180 168.400,252.000 167.860,252.000 167.200 C 252.000 166.540,251.820 166.000,251.600 166.000 C 251.380 166.000,251.200 165.190,251.200 164.200 C 251.200 163.210,251.020 162.400,250.800 162.400 C 250.580 162.400,250.400 161.770,250.400 161.000 C 250.400 160.230,250.220 159.600,250.000 159.600 C 249.780 159.600,249.600 158.970,249.600 158.200 C 249.600 157.430,249.420 156.800,249.200 156.800 C 248.980 156.800,248.800 156.260,248.800 155.600 C 248.800 154.940,248.620 154.400,248.400 154.400 C 248.180 154.400,248.000 153.860,248.000 153.200 C 248.000 152.540,247.820 152.000,247.600 152.000 C 247.380 152.000,247.200 151.280,247.200 150.400 C 247.200 149.520,247.020 148.800,246.800 148.800 C 246.580 148.800,246.400 148.181,246.400 147.424 C 246.400 146.667,246.220 145.936,246.000 145.800 C 245.780 145.664,245.600 145.203,245.600 144.776 C 245.600 144.349,245.420 144.000,245.200 144.000 C 244.980 144.000,244.800 143.550,244.800 143.000 C 244.800 142.450,244.620 142.000,244.400 142.000 C 244.180 142.000,244.000 141.460,244.000 140.800 C 244.000 140.140,243.820 139.600,243.600 139.600 C 243.380 139.600,243.200 139.060,243.200 138.400 C 243.200 137.740,243.020 137.200,242.800 137.200 C 242.580 137.200,242.400 136.660,242.400 136.000 C 242.400 135.340,242.220 134.800,242.000 134.800 C 241.780 134.800,241.599 134.305,241.598 133.700 C 241.597 133.095,241.147 131.714,240.598 130.632 C 240.049 129.550,239.600 128.425,239.600 128.132 C 239.600 127.839,239.420 127.600,239.200 127.600 C 238.980 127.600,238.800 127.170,238.800 126.643 C 238.800 124.995,235.770 124.933,234.715 126.560 C 234.558 126.802,234.288 127.012,234.115 127.026 C 233.457 127.082,230.800 128.563,230.800 128.874 C 230.800 129.053,230.260 129.200,229.600 129.200 C 228.940 129.200,228.400 129.380,228.400 129.600 C 228.400 129.820,227.950 130.000,227.400 130.000 C 226.850 130.000,226.400 130.180,226.400 130.400 C 226.400 130.620,225.860 130.800,225.200 130.800 C 224.540 130.800,224.000 130.980,224.000 131.200 C 224.000 131.420,223.280 131.600,222.400 131.600 C 221.520 131.600,220.800 131.780,220.800 132.000 C 220.800 132.222,219.733 132.400,218.400 132.400 C 217.067 132.400,216.000 132.578,216.000 132.800 C 216.000 133.041,214.333 133.200,211.800 133.200 C 209.267 133.200,207.600 133.359,207.600 133.600 C 207.600 133.851,205.067 134.000,200.800 134.000 C 196.533 134.000,194.000 133.851,194.000 133.600 C 194.000 133.359,192.341 133.200,189.824 133.200 C 187.471 133.200,185.539 133.025,185.400 132.800 C 185.264 132.580,183.993 132.400,182.576 132.400 C 181.125 132.400,180.000 132.225,180.000 132.000 C 180.000 131.780,179.280 131.600,178.400 131.600 C 177.520 131.600,176.800 131.420,176.800 131.200 C 176.800 130.980,176.181 130.800,175.424 130.800 C 174.667 130.800,173.936 130.620,173.800 130.400 C 173.664 130.180,173.113 130.000,172.576 130.000 C 172.039 130.000,171.600 129.820,171.600 129.600 C 171.600 129.380,171.240 129.200,170.800 129.200 C 170.360 129.200,170.000 129.020,170.000 128.800 C 170.000 128.580,169.640 128.400,169.200 128.400 C 168.760 128.400,168.400 128.220,168.400 128.000 C 168.400 127.780,168.040 127.600,167.600 127.600 C 167.160 127.600,166.800 127.420,166.800 127.200 C 166.800 126.980,166.440 126.800,166.000 126.800 C 165.560 126.800,165.200 126.609,165.200 126.376 C 165.200 126.143,165.039 126.052,164.842 126.174 C 164.645 126.296,164.381 126.126,164.254 125.798 C 164.030 125.212,163.295 125.111,161.900 125.476 M116.500 151.798 C 116.225 152.111,116.000 152.604,116.000 152.895 C 116.000 153.186,115.640 153.683,115.200 154.000 C 114.760 154.317,114.400 154.857,114.400 155.200 C 114.400 155.543,114.040 156.083,113.600 156.400 C 113.160 156.717,112.800 157.214,112.800 157.505 C 112.800 157.796,112.469 158.389,112.064 158.823 C 111.659 159.258,111.074 160.105,110.765 160.707 C 110.455 161.308,110.021 161.932,109.801 162.094 C 109.580 162.256,109.548 162.391,109.729 162.394 C 109.909 162.397,109.773 162.685,109.425 163.032 C 109.077 163.380,108.875 163.797,108.975 163.959 C 109.075 164.122,108.807 164.507,108.379 164.815 C 107.950 165.124,107.600 165.657,107.600 166.000 C 107.600 166.343,107.240 166.883,106.800 167.200 C 106.360 167.517,106.000 168.057,106.000 168.400 C 106.000 168.743,105.640 169.283,105.200 169.600 C 104.760 169.917,104.400 170.497,104.400 170.888 C 104.400 171.280,104.220 171.600,104.000 171.600 C 103.780 171.600,103.600 171.920,103.600 172.312 C 103.600 172.703,103.240 173.283,102.800 173.600 C 102.360 173.917,102.000 174.379,102.000 174.626 C 102.000 174.874,101.640 175.402,101.200 175.800 C 100.760 176.198,100.400 176.766,100.400 177.062 C 100.400 177.358,100.250 177.600,100.068 177.600 C 99.885 177.600,99.480 178.095,99.168 178.700 C 98.855 179.305,98.285 180.149,97.900 180.575 C 97.515 181.002,97.200 181.504,97.200 181.692 C 97.200 181.880,96.840 182.420,96.400 182.892 C 95.960 183.364,95.600 183.987,95.600 184.275 C 95.600 184.564,95.420 184.800,95.200 184.800 C 94.980 184.800,94.800 185.078,94.800 185.417 C 94.800 185.756,94.446 186.413,94.014 186.877 C 93.581 187.341,93.315 187.863,93.422 188.036 C 93.529 188.209,93.373 188.497,93.076 188.675 C 92.435 189.060,91.200 191.465,91.200 192.328 C 91.200 192.661,91.089 192.822,90.952 192.686 C 90.619 192.353,89.600 193.406,89.600 194.083 C 89.600 194.380,89.240 194.883,88.800 195.200 C 88.360 195.517,88.000 196.057,88.000 196.400 C 88.000 196.743,87.640 197.283,87.200 197.600 C 86.760 197.917,86.400 198.457,86.400 198.800 C 86.400 199.143,86.040 199.683,85.600 200.000 C 85.160 200.317,84.800 200.897,84.800 201.288 C 84.800 201.680,84.620 202.000,84.400 202.000 C 84.180 202.000,84.000 202.320,84.000 202.712 C 84.000 203.103,83.640 203.683,83.200 204.000 C 82.760 204.317,82.400 204.857,82.400 205.200 C 82.400 205.543,82.040 206.083,81.600 206.400 C 81.160 206.717,80.800 207.231,80.800 207.541 C 80.800 207.852,80.484 208.397,80.097 208.753 C 79.711 209.109,79.126 209.940,78.797 210.600 C 78.469 211.260,77.898 212.135,77.529 212.544 C 77.161 212.953,76.955 213.538,77.072 213.844 C 77.202 214.182,77.024 214.400,76.619 214.400 C 76.253 214.400,76.064 214.580,76.200 214.800 C 76.336 215.020,76.278 215.200,76.072 215.200 C 75.866 215.200,75.473 215.740,75.200 216.400 C 74.927 217.060,74.545 217.600,74.351 217.600 C 74.158 217.600,74.000 217.920,74.000 218.312 C 74.000 218.703,73.640 219.283,73.200 219.600 C 72.760 219.917,72.400 220.497,72.400 220.888 C 72.400 221.280,72.220 221.600,72.000 221.600 C 71.780 221.600,71.600 221.836,71.600 222.125 C 71.600 222.413,71.240 223.036,70.800 223.508 C 70.360 223.980,70.000 224.526,70.000 224.721 C 70.000 224.916,69.640 225.402,69.200 225.800 C 68.760 226.198,68.400 226.766,68.400 227.062 C 68.400 227.358,68.220 227.600,68.000 227.600 C 67.780 227.600,67.600 227.960,67.600 228.400 C 67.600 228.840,67.420 229.200,67.200 229.200 C 66.980 229.200,66.800 229.740,66.800 230.400 C 66.800 231.060,66.980 231.600,67.200 231.600 C 67.420 231.600,67.600 231.960,67.600 232.400 C 67.600 232.933,67.867 233.200,68.400 233.200 C 68.840 233.200,69.200 233.380,69.200 233.600 C 69.200 235.568,74.290 233.191,74.982 230.900 C 75.132 230.405,75.422 230.000,75.627 230.000 C 75.832 230.000,76.000 229.640,76.000 229.200 C 76.000 228.760,76.180 228.400,76.400 228.400 C 76.620 228.400,76.800 228.080,76.800 227.688 C 76.800 227.297,77.160 226.717,77.600 226.400 C 78.040 226.083,78.400 225.593,78.400 225.312 C 78.400 225.030,78.550 224.800,78.732 224.800 C 78.915 224.800,79.319 224.305,79.630 223.700 C 79.940 223.095,80.511 222.309,80.897 221.953 C 81.284 221.597,81.600 221.052,81.600 220.741 C 81.600 220.431,81.960 219.917,82.400 219.600 C 82.840 219.283,83.200 218.786,83.200 218.495 C 83.200 218.204,83.560 217.580,84.000 217.108 C 84.440 216.636,84.800 216.013,84.800 215.725 C 84.800 215.436,84.980 215.200,85.200 215.200 C 85.420 215.200,85.600 214.880,85.600 214.488 C 85.600 214.097,85.960 213.517,86.400 213.200 C 86.840 212.883,87.200 212.343,87.200 212.000 C 87.200 211.657,87.560 211.117,88.000 210.800 C 88.440 210.483,88.800 209.986,88.800 209.695 C 88.800 209.404,89.136 208.806,89.547 208.365 C 89.958 207.924,90.633 206.901,91.047 206.092 C 91.461 205.284,92.115 204.268,92.500 203.835 C 92.885 203.403,93.200 202.813,93.200 202.525 C 93.200 202.236,93.380 202.000,93.600 202.000 C 93.820 202.000,94.000 201.680,94.000 201.288 C 94.000 200.897,94.360 200.317,94.800 200.000 C 95.240 199.683,95.600 199.143,95.600 198.800 C 95.600 198.457,95.960 197.917,96.400 197.600 C 96.840 197.283,97.200 196.743,97.200 196.400 C 97.200 196.057,97.560 195.517,98.000 195.200 C 98.440 194.883,98.800 194.303,98.800 193.912 C 98.800 193.520,98.980 193.200,99.200 193.200 C 99.420 193.200,99.600 192.883,99.600 192.496 C 99.600 192.109,99.960 191.568,100.400 191.293 C 100.840 191.018,101.200 190.525,101.200 190.197 C 101.200 189.868,101.350 189.600,101.532 189.600 C 101.715 189.600,102.120 189.105,102.432 188.500 C 102.745 187.895,103.315 187.051,103.700 186.625 C 104.085 186.198,104.400 185.613,104.400 185.325 C 104.400 185.036,104.580 184.800,104.800 184.800 C 105.020 184.800,105.200 184.480,105.200 184.088 C 105.200 183.697,105.560 183.117,106.000 182.800 C 106.440 182.483,106.800 181.903,106.800 181.512 C 106.800 181.120,106.967 180.800,107.171 180.800 C 107.375 180.800,107.860 180.080,108.248 179.200 C 108.636 178.320,109.099 177.600,109.277 177.600 C 109.455 177.600,109.600 177.280,109.600 176.888 C 109.600 176.497,109.960 175.917,110.400 175.600 C 110.840 175.283,111.200 174.793,111.200 174.512 C 111.200 174.230,111.380 174.000,111.600 174.000 C 111.820 174.000,112.000 173.680,112.000 173.288 C 112.000 172.897,112.360 172.317,112.800 172.000 C 113.240 171.683,113.600 171.143,113.600 170.800 C 113.600 170.457,113.960 169.917,114.400 169.600 C 114.840 169.283,115.200 168.743,115.200 168.400 C 115.200 168.057,115.560 167.517,116.000 167.200 C 116.440 166.883,116.800 166.303,116.800 165.912 C 116.800 165.520,116.980 165.200,117.200 165.200 C 117.420 165.200,117.600 164.880,117.600 164.488 C 117.600 164.097,117.960 163.517,118.400 163.200 C 118.840 162.883,119.200 162.380,119.200 162.083 C 119.200 160.811,120.379 160.254,121.162 161.156 C 121.565 161.620,122.109 162.000,122.373 162.000 C 122.636 162.000,123.729 162.900,124.800 164.000 C 125.871 165.100,126.864 166.000,127.005 166.000 C 127.147 166.000,127.954 166.720,128.800 167.600 C 129.646 168.480,130.536 169.200,130.779 169.200 C 131.022 169.200,132.028 170.007,133.014 170.993 C 134.001 171.980,135.301 173.103,135.904 173.490 C 137.286 174.377,137.802 174.778,139.001 175.900 C 140.460 177.264,141.600 176.618,141.600 174.429 C 141.600 173.753,141.780 173.200,142.000 173.200 C 142.915 173.200,142.443 168.807,141.418 167.782 C 140.878 167.242,140.339 166.800,140.220 166.800 C 140.101 166.800,139.085 165.900,137.961 164.800 C 136.838 163.700,135.757 162.800,135.560 162.800 C 135.362 162.800,134.461 162.082,133.556 161.204 C 132.651 160.326,131.762 159.700,131.580 159.812 C 131.398 159.925,131.064 159.698,130.837 159.308 C 130.610 158.919,130.419 158.750,130.412 158.933 C 130.405 159.116,129.694 158.531,128.831 157.633 C 127.969 156.735,127.018 156.000,126.720 156.000 C 126.421 156.000,125.912 155.617,125.588 155.149 C 124.674 153.826,122.654 152.004,122.100 152.002 C 121.825 152.001,121.600 151.820,121.600 151.600 C 121.600 150.964,117.080 151.140,116.500 151.798 M278.400 151.502 C 278.400 151.669,277.905 152.026,277.300 152.296 C 276.695 152.566,275.840 153.329,275.400 153.992 C 274.960 154.655,274.361 155.198,274.069 155.199 C 273.776 155.199,272.846 155.920,272.000 156.800 C 271.154 157.680,270.261 158.400,270.014 158.400 C 269.533 158.400,269.314 158.559,267.258 160.399 C 266.519 161.059,265.759 161.600,265.568 161.600 C 265.377 161.600,264.411 162.410,263.421 163.400 C 262.431 164.390,261.466 165.200,261.276 165.200 C 259.909 165.200,257.600 168.829,257.600 170.977 C 257.600 172.199,257.780 173.200,258.000 173.200 C 258.220 173.200,258.400 173.830,258.400 174.600 C 258.400 175.827,258.524 176.000,259.400 176.000 C 259.950 176.000,260.400 175.838,260.400 175.639 C 260.400 175.441,260.895 175.105,261.500 174.894 C 262.105 174.683,263.204 173.945,263.942 173.255 C 264.681 172.565,265.441 172.000,265.632 172.000 C 265.823 172.000,266.789 171.190,267.779 170.200 C 268.769 169.210,269.742 168.400,269.941 168.400 C 270.141 168.400,271.045 167.680,271.952 166.800 C 272.859 165.920,273.705 165.200,273.832 165.200 C 273.959 165.200,274.754 164.480,275.600 163.600 C 276.446 162.720,277.355 162.000,277.622 162.000 C 277.888 162.000,278.435 161.620,278.838 161.156 C 279.621 160.254,280.800 160.811,280.800 162.083 C 280.800 162.380,281.160 162.883,281.600 163.200 C 282.040 163.517,282.400 164.097,282.400 164.488 C 282.400 164.880,282.580 165.200,282.800 165.200 C 283.020 165.200,283.200 165.520,283.200 165.912 C 283.200 166.303,283.560 166.883,284.000 167.200 C 284.440 167.517,284.800 168.057,284.800 168.400 C 284.800 168.743,285.160 169.283,285.600 169.600 C 286.040 169.917,286.400 170.457,286.400 170.800 C 286.400 171.143,286.760 171.683,287.200 172.000 C 287.640 172.317,288.000 172.897,288.000 173.288 C 288.000 173.680,288.180 174.000,288.400 174.000 C 288.620 174.000,288.800 174.230,288.800 174.512 C 288.800 174.793,289.160 175.283,289.600 175.600 C 290.040 175.917,290.400 176.497,290.400 176.888 C 290.400 177.280,290.567 177.600,290.771 177.600 C 290.975 177.600,291.460 178.320,291.848 179.200 C 292.236 180.080,292.801 180.800,293.104 180.800 C 293.449 180.800,293.570 181.065,293.428 181.512 C 293.287 181.957,293.502 182.441,294.001 182.801 C 294.440 183.117,294.800 183.697,294.800 184.088 C 294.800 184.480,294.980 184.800,295.200 184.800 C 295.420 184.800,295.600 185.036,295.600 185.325 C 295.600 185.613,295.915 186.198,296.300 186.625 C 296.685 187.051,297.255 187.895,297.568 188.500 C 297.880 189.105,298.285 189.600,298.468 189.600 C 298.650 189.600,298.800 189.868,298.800 190.197 C 298.800 190.525,299.160 191.018,299.600 191.293 C 300.040 191.568,300.400 192.109,300.400 192.496 C 300.400 192.883,300.580 193.200,300.800 193.200 C 301.020 193.200,301.200 193.520,301.200 193.912 C 301.200 194.303,301.560 194.883,302.000 195.200 C 302.440 195.517,302.800 196.057,302.800 196.400 C 302.800 196.743,303.160 197.283,303.600 197.600 C 304.040 197.917,304.400 198.457,304.400 198.800 C 304.400 199.143,304.760 199.683,305.200 200.000 C 305.640 200.317,306.000 200.857,306.000 201.200 C 306.000 201.543,306.360 202.083,306.800 202.400 C 307.240 202.717,307.600 203.297,307.600 203.688 C 307.600 204.080,307.780 204.400,308.000 204.400 C 308.220 204.400,308.400 204.670,308.400 205.000 C 308.400 205.330,308.760 205.960,309.200 206.400 C 309.640 206.840,309.999 207.335,309.997 207.500 C 309.995 207.665,310.265 208.117,310.597 208.505 C 310.929 208.892,311.200 209.437,311.200 209.716 C 311.200 209.995,311.560 210.483,312.000 210.800 C 312.440 211.117,312.800 211.657,312.800 212.000 C 312.800 212.343,313.160 212.883,313.600 213.200 C 314.040 213.517,314.400 214.097,314.400 214.488 C 314.400 214.880,314.580 215.200,314.800 215.200 C 315.020 215.200,315.200 215.520,315.200 215.912 C 315.200 216.303,315.560 216.883,316.000 217.200 C 316.440 217.517,316.800 218.057,316.800 218.400 C 316.800 218.743,317.160 219.283,317.600 219.600 C 318.040 219.917,318.400 220.431,318.400 220.741 C 318.400 221.052,318.716 221.597,319.103 221.953 C 319.489 222.309,320.060 223.095,320.370 223.700 C 320.681 224.305,321.085 224.800,321.268 224.800 C 321.450 224.800,321.600 225.030,321.600 225.312 C 321.600 225.593,321.960 226.083,322.400 226.400 C 322.840 226.717,323.200 227.297,323.200 227.688 C 323.200 228.080,323.380 228.400,323.600 228.400 C 323.820 228.400,324.000 228.760,324.000 229.200 C 324.000 229.640,324.168 230.000,324.373 230.000 C 324.578 230.000,324.861 230.361,325.001 230.802 C 325.761 233.197,330.800 235.628,330.800 233.600 C 330.800 233.380,331.160 233.200,331.600 233.200 C 332.133 233.200,332.400 232.933,332.400 232.400 C 332.400 231.960,332.580 231.600,332.800 231.600 C 333.020 231.600,333.200 231.060,333.200 230.400 C 333.200 229.740,333.020 229.200,332.800 229.200 C 332.580 229.200,332.400 228.840,332.400 228.400 C 332.400 227.960,332.220 227.600,332.000 227.600 C 331.780 227.600,331.600 227.358,331.600 227.062 C 331.600 226.766,331.240 226.198,330.800 225.800 C 330.360 225.402,330.000 224.874,330.000 224.626 C 330.000 224.379,329.640 223.917,329.200 223.600 C 328.760 223.283,328.400 222.703,328.400 222.312 C 328.400 221.920,328.220 221.600,328.000 221.600 C 327.780 221.600,327.600 221.280,327.600 220.888 C 327.600 220.497,327.240 219.917,326.800 219.600 C 326.360 219.283,326.000 218.703,326.000 218.312 C 326.000 217.920,325.855 217.600,325.677 217.600 C 325.499 217.600,325.036 216.880,324.648 216.000 C 324.260 215.120,323.775 214.400,323.571 214.400 C 323.367 214.400,323.200 214.164,323.200 213.875 C 323.200 213.587,322.885 213.002,322.500 212.575 C 322.115 212.149,321.531 211.260,321.203 210.600 C 320.874 209.940,320.289 209.109,319.903 208.753 C 319.516 208.397,319.200 207.852,319.200 207.541 C 319.200 207.231,318.840 206.717,318.400 206.400 C 317.960 206.083,317.600 205.543,317.600 205.200 C 317.600 204.857,317.240 204.317,316.800 204.000 C 316.360 203.683,316.000 203.103,316.000 202.712 C 316.000 202.320,315.820 202.000,315.600 202.000 C 315.380 202.000,315.200 201.680,315.200 201.288 C 315.200 200.897,314.840 200.317,314.400 200.000 C 313.960 199.683,313.600 199.143,313.600 198.800 C 313.600 198.457,313.240 197.917,312.800 197.600 C 312.360 197.283,312.000 196.743,312.000 196.400 C 312.000 196.057,311.640 195.517,311.200 195.200 C 310.760 194.883,310.400 194.380,310.400 194.083 C 310.400 193.406,309.381 192.353,309.048 192.686 C 308.911 192.822,308.800 192.639,308.800 192.280 C 308.800 191.417,307.541 188.800,307.126 188.800 C 306.947 188.800,306.800 188.564,306.800 188.275 C 306.800 187.987,306.440 187.364,306.000 186.892 C 305.560 186.420,305.200 185.796,305.200 185.505 C 305.200 185.214,304.840 184.717,304.400 184.400 C 303.960 184.083,303.600 183.503,303.600 183.112 C 303.600 182.720,303.420 182.400,303.200 182.400 C 302.980 182.400,302.800 182.164,302.800 181.875 C 302.800 181.587,302.485 181.002,302.100 180.575 C 301.715 180.149,301.145 179.305,300.832 178.700 C 300.520 178.095,300.115 177.600,299.932 177.600 C 299.750 177.600,299.600 177.358,299.600 177.062 C 299.600 176.766,299.240 176.198,298.800 175.800 C 298.360 175.402,298.000 174.834,298.000 174.538 C 298.000 174.242,297.820 174.000,297.600 174.000 C 297.380 174.000,297.200 173.680,297.200 173.288 C 297.200 172.897,296.840 172.317,296.400 172.000 C 295.960 171.683,295.600 171.143,295.600 170.800 C 295.600 170.457,295.240 169.917,294.800 169.600 C 294.360 169.283,294.000 168.743,294.000 168.400 C 294.000 168.057,293.640 167.517,293.200 167.200 C 292.760 166.883,292.400 166.303,292.400 165.912 C 292.400 165.520,292.232 165.200,292.027 165.200 C 291.822 165.200,291.526 164.795,291.371 164.300 C 291.044 163.261,288.016 158.665,287.528 158.467 C 287.347 158.393,287.200 158.028,287.200 157.655 C 287.200 157.282,286.840 156.717,286.400 156.400 C 285.960 156.083,285.600 155.543,285.600 155.200 C 285.600 154.857,285.240 154.317,284.800 154.000 C 284.360 153.683,284.000 153.180,284.000 152.883 C 284.000 151.766,282.867 151.200,280.629 151.200 C 279.403 151.200,278.400 151.336,278.400 151.502 M130.000 224.400 C 130.000 224.620,129.698 224.800,129.328 224.800 C 128.370 224.800,126.000 225.703,126.000 226.068 C 126.000 226.237,125.730 226.271,125.400 226.145 C 125.034 226.004,124.800 226.144,124.800 226.502 C 124.800 226.892,124.463 227.053,123.802 226.980 C 123.253 226.920,122.702 227.035,122.578 227.235 C 122.454 227.436,122.003 227.600,121.576 227.600 C 121.149 227.600,120.800 227.780,120.800 228.000 C 120.800 228.220,120.361 228.400,119.824 228.400 C 119.287 228.400,118.736 228.580,118.600 228.800 C 118.464 229.020,118.003 229.200,117.576 229.200 C 117.149 229.200,116.800 229.380,116.800 229.600 C 116.800 229.820,116.440 230.000,116.000 230.000 C 115.560 230.000,115.200 230.180,115.200 230.400 C 115.200 230.620,114.660 230.800,114.000 230.800 C 113.340 230.800,112.800 230.980,112.800 231.200 C 112.800 231.420,112.440 231.600,112.000 231.600 C 111.560 231.600,111.200 231.780,111.200 232.000 C 111.200 232.220,110.750 232.400,110.200 232.400 C 109.650 232.400,109.200 232.580,109.200 232.800 C 109.200 233.020,108.840 233.200,108.400 233.200 C 107.960 233.200,107.600 233.380,107.600 233.600 C 107.600 233.820,107.240 234.000,106.800 234.000 C 106.360 234.000,106.000 234.180,106.000 234.400 C 106.000 234.620,105.460 234.800,104.800 234.800 C 104.140 234.800,103.600 234.980,103.600 235.200 C 103.600 235.420,103.240 235.600,102.800 235.600 C 102.360 235.600,102.000 235.780,102.000 236.000 C 102.000 236.220,101.460 236.400,100.800 236.400 C 100.140 236.400,99.600 236.580,99.600 236.800 C 99.600 237.020,99.240 237.200,98.800 237.200 C 98.360 237.200,98.000 237.380,98.000 237.600 C 98.000 237.820,97.460 238.000,96.800 238.000 C 96.140 238.000,95.600 238.180,95.600 238.400 C 95.600 238.620,95.322 238.800,94.982 238.800 C 93.095 238.800,91.721 243.120,93.053 244.866 C 93.277 245.160,93.413 245.891,93.355 246.492 C 93.297 247.092,93.418 247.688,93.625 247.815 C 93.831 247.943,94.000 248.577,94.000 249.224 C 94.000 249.871,94.180 250.400,94.400 250.400 C 94.620 250.400,94.800 251.120,94.800 252.000 C 94.800 252.880,94.980 253.600,95.200 253.600 C 95.420 253.600,95.600 254.230,95.600 255.000 C 95.600 255.770,95.780 256.400,96.000 256.400 C 96.220 256.400,96.400 256.940,96.400 257.600 C 96.400 258.260,96.580 258.800,96.800 258.800 C 97.020 258.800,97.200 259.520,97.200 260.400 C 97.200 261.280,97.380 262.000,97.600 262.000 C 97.820 262.000,98.000 262.720,98.000 263.600 C 98.000 264.480,98.180 265.200,98.400 265.200 C 98.620 265.200,98.800 265.740,98.800 266.400 C 98.800 267.060,98.980 267.600,99.200 267.600 C 99.420 267.600,99.600 268.320,99.600 269.200 C 99.600 270.080,99.780 270.800,100.000 270.800 C 100.220 270.800,100.400 271.430,100.400 272.200 C 100.400 272.970,100.580 273.600,100.800 273.600 C 101.020 273.600,101.200 274.140,101.200 274.800 C 101.200 275.460,101.380 276.000,101.600 276.000 C 101.820 276.000,102.000 276.720,102.000 277.600 C 102.000 278.480,102.180 279.200,102.400 279.200 C 102.620 279.200,102.800 279.740,102.800 280.400 C 102.800 281.060,102.980 281.600,103.200 281.600 C 103.420 281.600,103.600 282.320,103.600 283.200 C 103.600 284.080,103.780 284.800,104.000 284.800 C 104.220 284.800,104.400 285.520,104.400 286.400 C 104.400 287.280,104.580 288.000,104.800 288.000 C 105.020 288.000,105.200 288.630,105.200 289.400 C 105.200 290.170,105.380 290.800,105.600 290.800 C 105.820 290.800,106.000 291.340,106.000 292.000 C 106.000 292.660,106.180 293.200,106.400 293.200 C 106.620 293.200,106.800 293.920,106.800 294.800 C 106.800 295.680,106.980 296.400,107.200 296.400 C 107.420 296.400,107.600 297.120,107.600 298.000 C 107.600 298.880,107.780 299.600,108.000 299.600 C 108.220 299.600,108.400 300.140,108.400 300.800 C 108.400 301.460,108.601 302.000,108.847 302.000 C 109.107 302.000,109.199 302.360,109.068 302.863 C 108.943 303.338,109.101 304.347,109.418 305.106 C 109.735 305.864,109.903 306.633,109.791 306.815 C 109.679 306.996,109.770 307.258,109.993 307.396 C 110.217 307.534,110.400 308.267,110.400 309.024 C 110.400 309.781,110.580 310.400,110.800 310.400 C 111.020 310.400,111.200 311.019,111.200 311.776 C 111.200 312.533,111.380 313.264,111.600 313.400 C 111.820 313.536,112.000 314.177,112.000 314.824 C 112.000 315.471,112.180 316.000,112.400 316.000 C 112.620 316.000,112.800 316.720,112.800 317.600 C 112.800 318.480,112.980 319.200,113.200 319.200 C 113.420 319.200,113.600 319.819,113.600 320.576 C 113.600 321.333,113.780 322.064,114.000 322.200 C 114.220 322.336,114.400 322.876,114.400 323.400 C 114.400 323.924,114.580 324.464,114.800 324.600 C 115.020 324.736,115.200 325.467,115.200 326.224 C 115.200 326.981,115.380 327.600,115.600 327.600 C 115.820 327.600,116.000 328.320,116.000 329.200 C 116.000 330.080,116.180 330.800,116.400 330.800 C 116.620 330.800,116.800 331.340,116.800 332.000 C 116.800 332.660,116.980 333.200,117.200 333.200 C 117.420 333.200,117.600 333.920,117.600 334.800 C 117.600 335.680,117.780 336.400,118.000 336.400 C 118.220 336.400,118.400 336.940,118.400 337.600 C 118.400 338.260,118.580 338.800,118.800 338.800 C 119.020 338.800,119.200 339.430,119.200 340.200 C 119.200 340.970,119.380 341.600,119.600 341.600 C 119.820 341.600,120.000 342.320,120.000 343.200 C 120.000 344.080,120.180 344.800,120.400 344.800 C 120.620 344.800,120.800 345.520,120.800 346.400 C 120.800 347.280,120.980 348.000,121.200 348.000 C 121.420 348.000,121.600 348.540,121.600 349.200 C 121.600 349.860,121.780 350.400,122.000 350.400 C 122.220 350.400,122.400 351.120,122.400 352.000 C 122.400 352.880,122.580 353.600,122.800 353.600 C 123.020 353.600,123.200 354.140,123.200 354.800 C 123.200 355.460,123.380 356.000,123.600 356.000 C 123.820 356.000,124.000 356.630,124.000 357.400 C 124.000 358.170,124.154 358.800,124.343 358.800 C 124.532 358.800,124.802 359.911,124.944 361.270 C 125.086 362.628,125.472 364.038,125.802 364.402 C 126.132 364.767,126.290 365.177,126.153 365.313 C 125.517 365.950,127.259 366.800,129.200 366.800 C 131.319 366.800,132.400 366.202,132.400 365.029 C 132.400 364.683,132.580 364.400,132.800 364.400 C 133.020 364.400,133.200 363.781,133.200 363.024 C 133.200 362.267,133.020 361.536,132.800 361.400 C 132.580 361.264,132.400 360.724,132.400 360.200 C 132.400 359.676,132.220 359.136,132.000 359.000 C 131.780 358.864,131.600 358.133,131.600 357.376 C 131.600 356.619,131.420 356.000,131.200 356.000 C 130.980 356.000,130.800 355.280,130.800 354.400 C 130.800 353.520,130.620 352.800,130.400 352.800 C 130.180 352.800,130.000 352.260,130.000 351.600 C 130.000 350.940,129.820 350.400,129.600 350.400 C 129.380 350.400,129.200 349.680,129.200 348.800 C 129.200 347.920,129.020 347.200,128.800 347.200 C 128.580 347.200,128.400 346.581,128.400 345.824 C 128.400 345.067,128.220 344.336,128.000 344.200 C 127.780 344.064,127.600 343.333,127.600 342.576 C 127.600 341.819,127.420 341.200,127.200 341.200 C 126.980 341.200,126.800 340.660,126.800 340.000 C 126.800 339.340,126.620 338.800,126.400 338.800 C 126.180 338.800,126.000 338.080,126.000 337.200 C 126.000 336.320,125.834 335.600,125.632 335.600 C 125.429 335.600,125.138 334.427,124.985 332.994 C 124.831 331.561,124.547 330.291,124.353 330.171 C 124.159 330.051,124.000 329.524,124.000 329.000 C 124.000 328.476,123.820 327.936,123.600 327.800 C 123.380 327.664,123.200 326.933,123.200 326.176 C 123.200 325.419,123.020 324.800,122.800 324.800 C 122.580 324.800,122.400 324.080,122.400 323.200 C 122.400 322.320,122.220 321.600,122.000 321.600 C 121.780 321.600,121.600 320.981,121.600 320.224 C 121.600 319.467,121.420 318.736,121.200 318.600 C 120.980 318.464,120.800 317.823,120.800 317.176 C 120.800 316.529,120.620 316.000,120.400 316.000 C 120.180 316.000,120.000 315.381,120.000 314.624 C 120.000 313.867,119.820 313.136,119.600 313.000 C 119.380 312.864,119.200 312.223,119.200 311.576 C 119.200 310.929,119.020 310.400,118.800 310.400 C 118.580 310.400,118.400 309.770,118.400 309.000 C 118.400 308.230,118.220 307.600,118.000 307.600 C 117.780 307.600,117.600 306.880,117.600 306.000 C 117.600 305.120,117.420 304.400,117.200 304.400 C 116.980 304.400,116.800 303.860,116.800 303.200 C 116.800 302.540,116.620 302.000,116.400 302.000 C 116.180 302.000,116.000 301.280,116.000 300.400 C 116.000 299.520,115.820 298.800,115.600 298.800 C 115.380 298.800,115.200 298.181,115.200 297.424 C 115.200 296.667,115.020 295.936,114.800 295.800 C 114.580 295.664,114.400 294.933,114.400 294.176 C 114.400 293.419,114.220 292.800,114.000 292.800 C 113.780 292.800,113.600 292.260,113.600 291.600 C 113.600 290.940,113.420 290.400,113.200 290.400 C 112.980 290.400,112.800 289.680,112.800 288.800 C 112.800 287.920,112.620 287.200,112.400 287.200 C 112.180 287.200,112.000 286.660,112.000 286.000 C 112.000 285.340,111.820 284.800,111.600 284.800 C 111.380 284.800,111.200 284.080,111.200 283.200 C 111.200 282.320,111.020 281.600,110.800 281.600 C 110.580 281.600,110.400 281.060,110.400 280.400 C 110.400 279.740,110.220 279.200,110.000 279.200 C 109.780 279.200,109.600 278.480,109.600 277.600 C 109.600 276.720,109.445 276.000,109.255 276.000 C 109.065 276.000,108.790 274.965,108.642 273.700 C 108.374 271.400,107.811 269.213,107.151 267.905 C 106.958 267.523,106.800 266.679,106.800 266.029 C 106.800 265.379,106.620 264.736,106.400 264.600 C 106.180 264.464,106.000 263.834,106.000 263.200 C 106.000 262.566,105.820 261.936,105.600 261.800 C 105.380 261.664,105.200 261.023,105.200 260.376 C 105.200 259.729,105.020 259.200,104.800 259.200 C 104.580 259.200,104.400 258.480,104.400 257.600 C 104.400 256.720,104.220 256.000,104.000 256.000 C 103.780 256.000,103.600 255.460,103.600 254.800 C 103.600 254.140,103.420 253.600,103.200 253.600 C 102.980 253.600,102.800 252.880,102.800 252.000 C 102.800 251.120,102.620 250.400,102.400 250.400 C 102.180 250.400,102.000 249.781,102.000 249.024 C 102.000 248.267,101.820 247.536,101.600 247.400 C 100.783 246.895,101.123 244.000,102.000 244.000 C 102.440 244.000,102.800 243.820,102.800 243.600 C 102.800 243.380,103.340 243.200,104.000 243.200 C 104.660 243.200,105.200 243.020,105.200 242.800 C 105.200 242.580,105.560 242.400,106.000 242.400 C 106.440 242.400,106.800 242.240,106.800 242.045 C 106.800 241.850,107.610 241.569,108.600 241.421 C 109.590 241.272,110.400 240.982,110.400 240.775 C 110.400 240.569,110.760 240.400,111.200 240.400 C 111.640 240.400,112.000 240.220,112.000 240.000 C 112.000 239.780,112.540 239.600,113.200 239.600 C 113.860 239.600,114.400 239.420,114.400 239.200 C 114.400 238.980,114.760 238.800,115.200 238.800 C 115.640 238.800,116.000 238.620,116.000 238.400 C 116.000 238.180,116.439 238.000,116.976 238.000 C 117.513 238.000,118.064 237.820,118.200 237.600 C 118.336 237.380,118.797 237.200,119.224 237.200 C 119.651 237.200,120.000 237.020,120.000 236.800 C 120.000 236.580,120.450 236.400,121.000 236.400 C 121.550 236.400,122.000 236.220,122.000 236.000 C 122.000 235.780,122.349 235.600,122.776 235.600 C 123.203 235.600,123.664 235.420,123.800 235.200 C 123.936 234.980,124.487 234.800,125.024 234.800 C 125.561 234.800,126.000 234.620,126.000 234.400 C 126.000 234.180,126.360 234.000,126.800 234.000 C 127.240 234.000,127.600 233.820,127.600 233.600 C 127.600 233.380,127.960 233.200,128.400 233.200 C 128.840 233.200,129.200 233.020,129.200 232.800 C 129.200 232.580,129.740 232.400,130.400 232.400 C 131.573 232.400,131.600 232.356,131.600 230.400 C 131.600 229.300,131.780 228.400,132.000 228.400 C 132.220 228.400,132.400 227.410,132.400 226.200 C 132.400 224.022,132.388 224.000,131.200 224.000 C 130.540 224.000,130.000 224.180,130.000 224.400 M267.600 226.149 C 267.600 226.947,267.780 227.600,268.000 227.600 C 268.222 227.600,268.400 228.667,268.400 230.000 C 268.400 232.133,268.489 232.400,269.200 232.400 C 269.640 232.400,270.000 232.580,270.000 232.800 C 270.000 233.020,270.360 233.200,270.800 233.200 C 271.240 233.200,271.600 233.380,271.600 233.600 C 271.600 233.820,272.140 234.000,272.800 234.000 C 273.460 234.000,274.000 234.180,274.000 234.400 C 274.000 234.620,274.360 234.800,274.800 234.800 C 275.240 234.800,275.600 234.980,275.600 235.200 C 275.600 235.420,276.050 235.600,276.600 235.600 C 277.150 235.600,277.600 235.780,277.600 236.000 C 277.600 236.220,277.960 236.400,278.400 236.400 C 278.840 236.400,279.200 236.580,279.200 236.800 C 279.200 237.020,279.740 237.200,280.400 237.200 C 281.060 237.200,281.600 237.380,281.600 237.600 C 281.600 237.820,281.960 238.000,282.400 238.000 C 282.840 238.000,283.200 238.180,283.200 238.400 C 283.200 238.620,283.740 238.800,284.400 238.800 C 285.060 238.800,285.600 238.980,285.600 239.200 C 285.600 239.420,285.949 239.600,286.376 239.600 C 286.803 239.600,287.264 239.780,287.400 240.000 C 287.536 240.220,288.087 240.400,288.624 240.400 C 289.161 240.400,289.600 240.574,289.600 240.786 C 289.600 240.999,290.497 241.291,291.592 241.437 C 292.688 241.582,293.488 241.858,293.369 242.051 C 293.250 242.243,293.523 242.400,293.976 242.400 C 294.429 242.400,294.800 242.580,294.800 242.800 C 294.800 243.020,295.149 243.200,295.576 243.200 C 296.003 243.200,296.464 243.380,296.600 243.600 C 296.736 243.820,297.287 244.000,297.824 244.000 C 298.696 244.000,298.800 244.170,298.800 245.600 C 298.800 246.480,298.620 247.200,298.400 247.200 C 298.180 247.200,298.000 247.920,298.000 248.800 C 298.000 249.680,297.820 250.400,297.600 250.400 C 297.380 250.400,297.200 250.929,297.200 251.576 C 297.200 252.223,297.020 252.864,296.800 253.000 C 296.580 253.136,296.400 253.867,296.400 254.624 C 296.400 255.381,296.220 256.000,296.000 256.000 C 295.780 256.000,295.600 256.619,295.600 257.376 C 295.600 258.133,295.420 258.864,295.200 259.000 C 294.980 259.136,294.800 259.867,294.800 260.624 C 294.800 261.381,294.620 262.000,294.400 262.000 C 294.180 262.000,294.000 262.529,294.000 263.176 C 294.000 263.823,293.824 264.461,293.610 264.594 C 293.395 264.727,293.281 265.365,293.357 266.013 C 293.436 266.690,293.254 267.389,292.929 267.659 C 292.618 267.917,292.454 268.364,292.565 268.652 C 292.675 268.940,292.413 270.199,291.983 271.450 C 291.552 272.702,291.200 274.237,291.200 274.863 C 291.200 275.488,291.020 276.000,290.800 276.000 C 290.580 276.000,290.400 276.529,290.400 277.176 C 290.400 277.823,290.220 278.464,290.000 278.600 C 289.780 278.736,289.600 279.467,289.600 280.224 C 289.600 280.981,289.420 281.600,289.200 281.600 C 288.980 281.600,288.800 282.320,288.800 283.200 C 288.800 284.080,288.620 284.800,288.400 284.800 C 288.180 284.800,288.000 285.340,288.000 286.000 C 288.000 286.660,287.820 287.200,287.600 287.200 C 287.380 287.200,287.200 287.920,287.200 288.800 C 287.200 289.680,287.020 290.400,286.800 290.400 C 286.580 290.400,286.400 291.030,286.400 291.800 C 286.400 292.570,286.220 293.200,286.000 293.200 C 285.780 293.200,285.600 293.740,285.600 294.400 C 285.600 295.060,285.420 295.600,285.200 295.600 C 284.980 295.600,284.800 296.320,284.800 297.200 C 284.800 298.080,284.620 298.800,284.400 298.800 C 284.180 298.800,284.000 299.520,284.000 300.400 C 284.000 301.280,283.820 302.000,283.600 302.000 C 283.380 302.000,283.200 302.540,283.200 303.200 C 283.200 303.860,283.020 304.400,282.800 304.400 C 282.580 304.400,282.400 305.120,282.400 306.000 C 282.400 306.880,282.220 307.600,282.000 307.600 C 281.780 307.600,281.600 308.140,281.600 308.800 C 281.600 309.460,281.420 310.000,281.200 310.000 C 280.980 310.000,280.800 310.630,280.800 311.400 C 280.800 312.170,280.620 312.800,280.400 312.800 C 280.180 312.800,280.000 313.520,280.000 314.400 C 280.000 315.280,279.820 316.000,279.600 316.000 C 279.380 316.000,279.200 316.720,279.200 317.600 C 279.200 318.480,279.020 319.200,278.800 319.200 C 278.580 319.200,278.400 319.740,278.400 320.400 C 278.400 321.060,278.220 321.600,278.000 321.600 C 277.780 321.600,277.600 322.320,277.600 323.200 C 277.600 324.080,277.436 324.800,277.235 324.800 C 277.035 324.800,276.920 325.249,276.980 325.797 C 277.040 326.345,276.836 327.004,276.526 327.261 C 276.217 327.518,276.050 327.954,276.156 328.230 C 276.262 328.506,276.000 329.649,275.574 330.770 C 275.149 331.891,274.800 333.437,274.800 334.204 C 274.800 334.972,274.620 335.600,274.400 335.600 C 274.180 335.600,274.000 336.320,274.000 337.200 C 274.000 338.080,273.820 338.800,273.600 338.800 C 273.380 338.800,273.200 339.520,273.200 340.400 C 273.200 341.280,273.020 342.000,272.800 342.000 C 272.580 342.000,272.400 342.439,272.400 342.976 C 272.400 343.513,272.220 344.064,272.000 344.200 C 271.780 344.336,271.600 345.067,271.600 345.824 C 271.600 346.581,271.420 347.200,271.200 347.200 C 270.980 347.200,270.800 347.920,270.800 348.800 C 270.800 349.680,270.620 350.400,270.400 350.400 C 270.180 350.400,270.000 350.940,270.000 351.600 C 270.000 352.260,269.820 352.800,269.600 352.800 C 269.380 352.800,269.200 353.520,269.200 354.400 C 269.200 355.280,269.020 356.000,268.800 356.000 C 268.580 356.000,268.400 356.540,268.400 357.200 C 268.400 357.860,268.220 358.400,268.000 358.400 C 267.780 358.400,267.600 359.019,267.600 359.776 C 267.600 360.533,267.420 361.264,267.200 361.400 C 266.980 361.536,266.800 362.267,266.800 363.024 C 266.800 363.781,266.980 364.400,267.200 364.400 C 267.420 364.400,267.600 364.683,267.600 365.029 C 267.600 366.202,268.681 366.800,270.800 366.800 C 272.919 366.800,274.000 366.202,274.000 365.029 C 274.000 364.683,274.169 364.400,274.376 364.400 C 274.582 364.400,274.876 363.140,275.027 361.600 C 275.179 360.060,275.460 358.800,275.652 358.800 C 275.843 358.800,276.000 358.170,276.000 357.400 C 276.000 356.630,276.180 356.000,276.400 356.000 C 276.620 356.000,276.800 355.460,276.800 354.800 C 276.800 354.140,276.980 353.600,277.200 353.600 C 277.420 353.600,277.600 352.880,277.600 352.000 C 277.600 351.120,277.780 350.400,278.000 350.400 C 278.220 350.400,278.400 349.860,278.400 349.200 C 278.400 348.540,278.580 348.000,278.800 348.000 C 279.020 348.000,279.200 347.280,279.200 346.400 C 279.200 345.520,279.380 344.800,279.600 344.800 C 279.820 344.800,280.000 344.080,280.000 343.200 C 280.000 342.320,280.180 341.600,280.400 341.600 C 280.620 341.600,280.800 341.060,280.800 340.400 C 280.800 339.740,280.980 339.200,281.200 339.200 C 281.420 339.200,281.600 338.570,281.600 337.800 C 281.600 337.030,281.780 336.400,282.000 336.400 C 282.220 336.400,282.400 335.680,282.400 334.800 C 282.400 333.920,282.580 333.200,282.800 333.200 C 283.020 333.200,283.200 332.480,283.200 331.600 C 283.200 330.720,283.380 330.000,283.600 330.000 C 283.820 330.000,284.000 329.460,284.000 328.800 C 284.000 328.140,284.180 327.600,284.400 327.600 C 284.620 327.600,284.800 327.060,284.800 326.400 C 284.800 325.740,284.980 325.200,285.200 325.200 C 285.420 325.200,285.600 324.581,285.600 323.824 C 285.600 323.067,285.780 322.336,286.000 322.200 C 286.220 322.064,286.400 321.333,286.400 320.576 C 286.400 319.819,286.580 319.200,286.800 319.200 C 287.020 319.200,287.200 318.480,287.200 317.600 C 287.200 316.720,287.380 316.000,287.600 316.000 C 287.820 316.000,288.000 315.471,288.000 314.824 C 288.000 314.177,288.180 313.536,288.400 313.400 C 288.620 313.264,288.800 312.533,288.800 311.776 C 288.800 311.019,288.980 310.400,289.200 310.400 C 289.420 310.400,289.600 309.858,289.600 309.195 C 289.600 308.532,289.758 307.677,289.951 307.295 C 290.650 305.912,291.201 303.704,291.455 301.277 C 291.597 299.915,291.868 298.800,292.057 298.800 C 292.246 298.800,292.400 298.260,292.400 297.600 C 292.400 296.940,292.580 296.400,292.800 296.400 C 293.020 296.400,293.200 295.680,293.200 294.800 C 293.200 293.920,293.380 293.200,293.600 293.200 C 293.820 293.200,294.000 292.660,294.000 292.000 C 294.000 291.340,294.180 290.800,294.400 290.800 C 294.620 290.800,294.800 290.170,294.800 289.400 C 294.800 288.630,294.980 288.000,295.200 288.000 C 295.420 288.000,295.600 287.280,295.600 286.400 C 295.600 285.520,295.780 284.800,296.000 284.800 C 296.220 284.800,296.400 284.260,296.400 283.600 C 296.400 282.940,296.580 282.400,296.800 282.400 C 297.020 282.400,297.200 281.680,297.200 280.800 C 297.200 279.920,297.380 279.200,297.600 279.200 C 297.820 279.200,298.000 278.480,298.000 277.600 C 298.000 276.720,298.180 276.000,298.400 276.000 C 298.620 276.000,298.800 275.460,298.800 274.800 C 298.800 274.140,298.980 273.600,299.200 273.600 C 299.420 273.600,299.600 272.970,299.600 272.200 C 299.600 271.430,299.780 270.800,300.000 270.800 C 300.220 270.800,300.400 270.080,300.400 269.200 C 300.400 268.320,300.580 267.600,300.800 267.600 C 301.020 267.600,301.200 267.060,301.200 266.400 C 301.200 265.740,301.380 265.200,301.600 265.200 C 301.820 265.200,302.000 264.480,302.000 263.600 C 302.000 262.720,302.180 262.000,302.400 262.000 C 302.620 262.000,302.800 261.471,302.800 260.824 C 302.800 260.177,302.980 259.536,303.200 259.400 C 303.420 259.264,303.600 258.533,303.600 257.776 C 303.600 257.019,303.780 256.400,304.000 256.400 C 304.220 256.400,304.400 255.770,304.400 255.000 C 304.400 254.230,304.580 253.600,304.800 253.600 C 305.020 253.600,305.200 252.880,305.200 252.000 C 305.200 251.120,305.380 250.400,305.600 250.400 C 305.820 250.400,306.000 249.871,306.000 249.224 C 306.000 248.577,306.180 247.936,306.400 247.800 C 306.620 247.664,306.800 246.933,306.800 246.176 C 306.800 245.419,306.980 244.800,307.200 244.800 C 307.420 244.800,307.600 243.892,307.600 242.782 C 307.600 240.673,306.396 238.800,305.042 238.800 C 304.715 238.800,304.336 238.620,304.200 238.400 C 304.064 238.180,303.513 238.000,302.976 238.000 C 302.439 238.000,302.000 237.820,302.000 237.600 C 302.000 237.380,301.640 237.200,301.200 237.200 C 300.760 237.200,300.400 237.020,300.400 236.800 C 300.400 236.580,299.860 236.400,299.200 236.400 C 298.540 236.400,298.000 236.220,298.000 236.000 C 298.000 235.780,297.640 235.600,297.200 235.600 C 296.760 235.600,296.400 235.420,296.400 235.200 C 296.400 234.980,295.860 234.800,295.200 234.800 C 294.540 234.800,294.000 234.620,294.000 234.400 C 294.000 234.180,293.640 234.000,293.200 234.000 C 292.760 234.000,292.400 233.820,292.400 233.600 C 292.400 233.380,291.950 233.200,291.400 233.200 C 290.850 233.200,290.400 233.020,290.400 232.800 C 290.400 232.580,290.051 232.400,289.624 232.400 C 289.197 232.400,288.736 232.220,288.600 232.000 C 288.464 231.780,287.913 231.600,287.376 231.600 C 286.839 231.600,286.400 231.420,286.400 231.200 C 286.400 230.980,286.040 230.800,285.600 230.800 C 285.160 230.800,284.800 230.620,284.800 230.400 C 284.800 230.180,284.260 230.000,283.600 230.000 C 282.940 230.000,282.400 229.820,282.400 229.600 C 282.400 229.380,282.040 229.200,281.600 229.200 C 281.160 229.200,280.800 229.020,280.800 228.800 C 280.800 228.580,280.260 228.400,279.600 228.400 C 278.940 228.400,278.400 228.220,278.400 228.000 C 278.400 227.780,278.040 227.600,277.600 227.600 C 277.160 227.600,276.800 227.412,276.800 227.182 C 276.800 226.953,276.575 226.811,276.300 226.866 C 276.025 226.922,275.440 226.768,275.000 226.523 C 274.560 226.279,274.110 226.074,274.000 226.068 C 273.890 226.061,273.260 225.841,272.600 225.579 C 271.940 225.316,270.545 225.010,269.500 224.900 L 267.600 224.698 267.600 226.149 M175.445 333.700 C 175.310 334.418,175.396 335.635,175.635 336.403 C 175.873 337.171,176.128 338.206,176.200 338.703 C 176.393 340.043,178.507 343.198,179.212 343.199 C 179.548 343.200,180.083 343.560,180.400 344.000 C 180.739 344.470,181.435 344.800,182.088 344.800 C 182.700 344.800,183.200 344.980,183.200 345.200 C 183.200 345.460,189.067 345.600,200.000 345.600 C 210.933 345.600,216.800 345.460,216.800 345.200 C 216.800 344.980,217.340 344.800,218.000 344.800 C 218.660 344.800,219.200 344.664,219.200 344.498 C 219.200 344.331,219.701 343.974,220.312 343.703 C 221.697 343.090,224.000 339.379,224.000 337.761 C 224.000 337.100,224.192 336.368,224.427 336.133 C 224.662 335.898,224.797 335.007,224.727 334.153 L 224.600 332.600 200.145 332.497 L 175.690 332.394 175.445 333.700 M190.400 350.631 C 190.400 351.302,190.954 352.211,191.984 353.231 C 192.856 354.094,193.475 354.800,193.361 354.800 C 193.182 354.800,194.579 356.156,198.286 359.582 C 198.773 360.032,199.448 360.400,199.786 360.400 C 200.124 360.400,200.400 360.580,200.400 360.800 C 200.400 361.020,200.843 361.200,201.385 361.200 C 202.336 361.200,207.600 356.717,207.600 355.907 C 207.600 355.585,207.948 355.099,209.100 353.815 C 209.375 353.508,209.600 352.974,209.600 352.629 C 209.600 352.283,209.780 352.000,210.000 352.000 C 210.220 352.000,210.400 351.460,210.400 350.800 L 210.400 349.600 200.400 349.600 L 190.400 349.600 190.400 350.631 " stroke="none" fill="#343434" fill-rule="evenodd"></path><path id="path1" d="" stroke="none" fill="#383434" fill-rule="evenodd"></path><path id="path2" d="" stroke="none" fill="#383434" fill-rule="evenodd"></path><path id="path3" d="" stroke="none" fill="#383434" fill-rule="evenodd"></path><path id="path4" d="" stroke="none" fill="#383434" fill-rule="evenodd"></path></g></svg>